<svg width="26" height="26" viewBox="0 0 26 26" fill="none" xmlns="http://www.w3.org/2000/svg">
<g clip-path="url(#clip0_19496_35992)">
<path d="M0.150445 18.3139C0.0902054 18.254 0.0455346 18.1803 0.0203304 18.0992C-0.00135537 16.543 -0.0056925 14.9868 0.00731894 13.4307L0.0203304 8.87667L0.189479 8.53837C0.37289 8.14765 0.698731 7.84183 1.10028 7.68352C1.37742 7.58203 1.43858 7.58203 13.0162 7.58203C24.5938 7.58203 24.6575 7.58203 24.9347 7.68352C25.3355 7.84089 25.6612 8.14522 25.8455 8.53447L26.0107 8.87277L26.0237 13.4307C26.0237 15.9341 26.0237 18.0393 26.0081 18.0992C25.9829 18.1803 25.9382 18.254 25.878 18.3139C25.7765 18.4154 25.6542 18.4154 13.0136 18.4154C0.372941 18.4154 0.251934 18.3971 0.150445 18.2957V18.3139ZM1.27594 16.3622C1.29155 15.1911 1.30066 15.1196 1.41386 14.8867C1.50049 14.7221 1.62768 14.5824 1.78338 14.4807L2.02279 14.3181H24.0395L24.2763 14.4807C24.4272 14.5852 24.5497 14.7256 24.6328 14.8893C24.7473 15.1196 24.7564 15.1911 24.7629 16.3661L24.7811 17.5956H25.1819V13.3552C25.1819 8.77258 25.1819 8.9118 24.9138 8.66198L24.7915 8.54488L24.7603 8.89879C24.7636 9.11869 24.7021 9.33469 24.5834 9.51982C24.4647 9.70495 24.2941 9.851 24.0928 9.93971C23.9263 10.01 22.7305 10.0191 13.0227 10.0191C3.31483 10.0191 2.12428 10.0399 1.95253 9.97223C1.75088 9.88501 1.5802 9.73903 1.46276 9.55335C1.34531 9.36766 1.28656 9.15089 1.29415 8.93132L1.26422 8.58131L1.13411 8.69841C0.856967 8.94433 0.863472 8.81161 0.863472 13.3825V17.6256H1.26292L1.27594 16.3622ZM11.5888 13.6662C11.5476 13.645 11.5124 13.6137 11.4865 13.5752C11.4607 13.5367 11.4451 13.4923 11.4412 13.4461C11.4373 13.3999 11.4452 13.3534 11.4642 13.3111C11.4832 13.2688 11.5127 13.2321 11.5498 13.2043C11.6474 13.134 11.8594 13.121 13.0136 13.121C14.5346 13.121 14.6114 13.1366 14.5814 13.445C14.5541 13.7117 14.4578 13.7299 13.0201 13.7299C12.5443 13.7588 12.0668 13.7384 11.5953 13.6688L11.5888 13.6662ZM21.4294 13.5582C21.4073 13.5252 21.393 13.4876 21.3877 13.4482C21.3824 13.4088 21.3862 13.3688 21.3987 13.3311C21.4113 13.2934 21.4323 13.2591 21.4602 13.2308C21.488 13.2025 21.522 13.181 21.5595 13.1678C21.7911 13.0455 22.0396 13.4281 21.8496 13.6167C21.8179 13.6413 21.7816 13.6592 21.7428 13.6694C21.7041 13.6796 21.6636 13.682 21.624 13.6763C21.5843 13.6706 21.5461 13.6569 21.5118 13.6362C21.4775 13.6155 21.4477 13.5881 21.4242 13.5556L21.4294 13.5582ZM22.7539 13.5673C22.7147 13.5177 22.6948 13.4555 22.6981 13.3923C22.7013 13.3292 22.7275 13.2693 22.7717 13.2241C22.8158 13.1788 22.875 13.1511 22.9381 13.1463C23.0011 13.1415 23.0638 13.1598 23.1144 13.1978C23.1507 13.2176 23.1819 13.2456 23.2056 13.2795C23.2293 13.3134 23.2448 13.3523 23.251 13.3932C23.2571 13.4341 23.2537 13.4759 23.241 13.5153C23.2283 13.5547 23.2067 13.5906 23.1778 13.6202C23.1489 13.6498 23.1136 13.6723 23.0745 13.686C23.0355 13.6997 22.9938 13.7041 22.9527 13.699C22.9117 13.6939 22.8724 13.6793 22.8379 13.6565C22.8034 13.6336 22.7747 13.6031 22.7539 13.5673ZM24.1501 17.3679V17.1402H1.87837V17.5956H24.1501V17.3679ZM24.1501 16.301V16.0213H1.87837V16.5807H24.1501V16.301ZM24.1501 15.2952C24.1373 15.2116 24.1043 15.1323 24.054 15.0643C24.0036 14.9963 23.9375 14.9416 23.8612 14.9049C23.7818 14.8658 20.8204 14.8476 13.0136 14.8476C5.20669 14.8476 2.25049 14.8658 2.16722 14.9049C2.09224 14.9433 2.02716 14.9985 1.97705 15.0662C1.92695 15.1339 1.89317 15.2123 1.87837 15.2952V15.4097H24.1501V15.2952ZM23.9965 9.30995C24.1344 9.17203 24.1501 9.1356 24.1501 8.77778V8.38744H1.87576V8.77778C1.87576 9.1343 1.88487 9.16813 2.02279 9.30995L2.17633 9.46088H23.8365L23.9965 9.30995Z" fill="white" fill-opacity="0.5"/>
</g>
<defs>
<clipPath id="clip0_19496_35992">
<rect width="26" height="26" fill="white"/>
</clipPath>
</defs>
</svg>
