<svg width="180" height="180" viewBox="0 0 180 180" fill="none" xmlns="http://www.w3.org/2000/svg">
<path d="M158.792 73.28V73.7696L155.98 80H155.231L157.996 73.8944H154.54V75.152H153.858V73.28H158.792ZM161.291 76.0352C162.264 76.0352 162.971 76.2112 163.413 76.5632C163.861 76.9088 164.085 77.3952 164.085 78.0224C164.085 78.4128 163.992 78.7616 163.807 79.0688C163.627 79.376 163.355 79.6192 162.991 79.7984C162.626 79.9712 162.178 80.0576 161.647 80.0576C161.167 80.0576 160.709 79.9808 160.274 79.8272C159.845 79.6672 159.499 79.456 159.237 79.1936L159.573 78.6464C159.797 78.8768 160.091 79.0656 160.456 79.2128C160.821 79.3536 161.215 79.424 161.637 79.424C162.194 79.424 162.623 79.2992 162.923 79.0496C163.231 78.8 163.384 78.4672 163.384 78.0512C163.384 77.5904 163.211 77.2416 162.866 77.0048C162.527 76.768 161.951 76.6496 161.138 76.6496H159.707L160.053 73.28H163.73V73.8944H160.658L160.427 76.0352H161.291Z" fill="white" fill-opacity="0.5"/>
<path d="M128.266 32.0352C129.238 32.0352 129.946 32.2112 130.387 32.5632C130.835 32.9088 131.059 33.3952 131.059 34.0224C131.059 34.4128 130.966 34.7616 130.781 35.0688C130.602 35.376 130.33 35.6192 129.965 35.7984C129.6 35.9712 129.152 36.0576 128.621 36.0576C128.141 36.0576 127.683 35.9808 127.248 35.8272C126.819 35.6672 126.474 35.456 126.211 35.1936L126.547 34.6464C126.771 34.8768 127.066 35.0656 127.43 35.2128C127.795 35.3536 128.189 35.424 128.611 35.424C129.168 35.424 129.597 35.2992 129.898 35.0496C130.205 34.8 130.358 34.4672 130.358 34.0512C130.358 33.5904 130.186 33.2416 129.84 33.0048C129.501 32.768 128.925 32.6496 128.112 32.6496H126.682L127.027 29.28H130.704V29.8944H127.632L127.402 32.0352H128.266ZM134.615 36.0576C134.097 36.0576 133.633 35.92 133.223 35.6448C132.82 35.3696 132.503 34.976 132.273 34.464C132.049 33.9456 131.937 33.3376 131.937 32.64C131.937 31.9424 132.049 31.3376 132.273 30.8256C132.503 30.3072 132.82 29.9104 133.223 29.6352C133.633 29.36 134.097 29.2224 134.615 29.2224C135.134 29.2224 135.594 29.36 135.998 29.6352C136.407 29.9104 136.727 30.3072 136.958 30.8256C137.188 31.3376 137.303 31.9424 137.303 32.64C137.303 33.3376 137.188 33.9456 136.958 34.464C136.727 34.976 136.407 35.3696 135.998 35.6448C135.594 35.92 135.134 36.0576 134.615 36.0576ZM134.615 35.424C135.006 35.424 135.348 35.3152 135.642 35.0976C135.943 34.88 136.177 34.5632 136.343 34.1472C136.51 33.7312 136.593 33.2288 136.593 32.64C136.593 32.0512 136.51 31.5488 136.343 31.1328C136.177 30.7168 135.943 30.4 135.642 30.1824C135.348 29.9648 135.006 29.856 134.615 29.856C134.225 29.856 133.879 29.9648 133.578 30.1824C133.284 30.4 133.054 30.7168 132.887 31.1328C132.721 31.5488 132.638 32.0512 132.638 32.64C132.638 33.2288 132.721 33.7312 132.887 34.1472C133.054 34.5632 133.284 34.88 133.578 35.0976C133.879 35.3152 134.225 35.424 134.615 35.424Z" fill="white" fill-opacity="0.5"/>
<path d="M75.6388 23.3856V24H70.9252V23.5104L73.7188 20.7744C74.0708 20.4288 74.3076 20.1312 74.4292 19.8816C74.5572 19.6256 74.6212 19.3696 74.6212 19.1136C74.6212 18.7168 74.4836 18.4096 74.2084 18.192C73.9396 17.968 73.5524 17.856 73.0468 17.856C72.2596 17.856 71.6484 18.1056 71.2132 18.6048L70.7236 18.1824C70.986 17.8752 71.3188 17.6384 71.722 17.472C72.1316 17.3056 72.5924 17.2224 73.1044 17.2224C73.7892 17.2224 74.33 17.3856 74.7268 17.712C75.13 18.032 75.3316 18.4736 75.3316 19.0368C75.3316 19.3824 75.2548 19.7152 75.1012 20.0352C74.9476 20.3552 74.6564 20.7232 74.2276 21.1392L71.9428 23.3856H75.6388ZM78.2726 20.0352C79.2454 20.0352 79.9526 20.2112 80.3942 20.5632C80.8422 20.9088 81.0662 21.3952 81.0662 22.0224C81.0662 22.4128 80.9734 22.7616 80.7878 23.0688C80.6086 23.376 80.3366 23.6192 79.9718 23.7984C79.607 23.9712 79.159 24.0576 78.6278 24.0576C78.1478 24.0576 77.6902 23.9808 77.255 23.8272C76.8262 23.6672 76.4806 23.456 76.2182 23.1936L76.5542 22.6464C76.7782 22.8768 77.0726 23.0656 77.4374 23.2128C77.8022 23.3536 78.1958 23.424 78.6182 23.424C79.175 23.424 79.6038 23.2992 79.9046 23.0496C80.2118 22.8 80.3654 22.4672 80.3654 22.0512C80.3654 21.5904 80.1926 21.2416 79.847 21.0048C79.5078 20.768 78.9318 20.6496 78.119 20.6496H76.6886L77.0342 17.28H80.711V17.8944H77.639L77.4086 20.0352H78.2726Z" fill="white" fill-opacity="0.5"/>
<path d="M148.362 124.28V131H147.67V124.894H146.086V124.28H148.362ZM152.646 131.058C152.128 131.058 151.664 130.92 151.254 130.645C150.851 130.37 150.534 129.976 150.304 129.464C150.08 128.946 149.968 128.338 149.968 127.64C149.968 126.942 150.08 126.338 150.304 125.826C150.534 125.307 150.851 124.91 151.254 124.635C151.664 124.36 152.128 124.222 152.646 124.222C153.165 124.222 153.626 124.36 154.029 124.635C154.438 124.91 154.758 125.307 154.989 125.826C155.219 126.338 155.334 126.942 155.334 127.64C155.334 128.338 155.219 128.946 154.989 129.464C154.758 129.976 154.438 130.37 154.029 130.645C153.626 130.92 153.165 131.058 152.646 131.058ZM152.646 130.424C153.037 130.424 153.379 130.315 153.674 130.098C153.974 129.88 154.208 129.563 154.374 129.147C154.541 128.731 154.624 128.229 154.624 127.64C154.624 127.051 154.541 126.549 154.374 126.133C154.208 125.717 153.974 125.4 153.674 125.182C153.379 124.965 153.037 124.856 152.646 124.856C152.256 124.856 151.91 124.965 151.61 125.182C151.315 125.4 151.085 125.717 150.918 126.133C150.752 126.549 150.669 127.051 150.669 127.64C150.669 128.229 150.752 128.731 150.918 129.147C151.085 129.563 151.315 129.88 151.61 130.098C151.91 130.315 152.256 130.424 152.646 130.424ZM159.003 131.058C158.484 131.058 158.02 130.92 157.611 130.645C157.207 130.37 156.891 129.976 156.66 129.464C156.436 128.946 156.324 128.338 156.324 127.64C156.324 126.942 156.436 126.338 156.66 125.826C156.891 125.307 157.207 124.91 157.611 124.635C158.02 124.36 158.484 124.222 159.003 124.222C159.521 124.222 159.982 124.36 160.385 124.635C160.795 124.91 161.115 125.307 161.345 125.826C161.575 126.338 161.691 126.942 161.691 127.64C161.691 128.338 161.575 128.946 161.345 129.464C161.115 129.976 160.795 130.37 160.385 130.645C159.982 130.92 159.521 131.058 159.003 131.058ZM159.003 130.424C159.393 130.424 159.735 130.315 160.03 130.098C160.331 129.88 160.564 129.563 160.731 129.147C160.897 128.731 160.98 128.229 160.98 127.64C160.98 127.051 160.897 126.549 160.731 126.133C160.564 125.717 160.331 125.4 160.03 125.182C159.735 124.965 159.393 124.856 159.003 124.856C158.612 124.856 158.267 124.965 157.966 125.182C157.671 125.4 157.441 125.717 157.275 126.133C157.108 126.549 157.025 127.051 157.025 127.64C157.025 128.229 157.108 128.731 157.275 129.147C157.441 129.563 157.671 129.88 157.966 130.098C158.267 130.315 158.612 130.424 159.003 130.424Z" fill="white" fill-opacity="0.5"/>
</svg>
