<svg width="22" height="22" viewBox="0 0 22 22" fill="none" xmlns="http://www.w3.org/2000/svg">
<path d="M5.25726 16.7206C4.55187 16.0152 3.99915 15.2 3.59912 14.2752C3.19908 13.3503 2.99937 12.3941 3 11.4066C3.00063 10.419 3.18873 9.44341 3.56432 8.47969C3.9399 7.51596 4.55124 6.61055 5.39834 5.76345C6.33886 4.82293 7.66751 4.1097 9.38428 3.62376C11.101 3.13783 13.3229 2.93405 16.0498 3.01242C16.4573 3.0281 16.8335 3.11431 17.1784 3.27107C17.5233 3.42782 17.8289 3.63944 18.0954 3.90592C18.3619 4.1724 18.5735 4.48215 18.7303 4.83516C18.887 5.18817 18.9732 5.56814 18.9889 5.97507C19.0203 7.26046 18.9851 8.44802 18.8836 9.53778C18.782 10.6275 18.6171 11.611 18.3889 12.4882C18.1606 13.3654 17.8709 14.1454 17.5198 14.8282C17.1687 15.511 16.7492 16.0948 16.2614 16.5795C15.4306 17.4103 14.549 18.0179 13.6166 18.4022C12.6843 18.7866 11.7318 18.9784 10.7593 18.9778C9.74042 18.9778 8.74504 18.7778 7.77316 18.3778C6.80129 17.9777 5.96265 17.4253 5.25726 16.7206ZM7.89073 16.3444C8.34531 16.6108 8.81181 16.803 9.29023 16.9209C9.76864 17.0388 10.2583 17.0974 10.7593 17.0968C11.4804 17.0968 12.1936 16.9519 12.899 16.6622C13.6044 16.3726 14.2785 15.9061 14.9211 15.2627C15.2033 14.9806 15.4895 14.5846 15.7798 14.0749C16.0702 13.5651 16.321 12.8992 16.5323 12.0772C16.7436 11.2552 16.9041 10.2598 17.0138 9.09103C17.1235 7.92227 17.1392 6.53092 17.0608 4.91698C16.2927 4.88563 15.4268 4.87403 14.4631 4.88218C13.4994 4.89034 12.5391 4.96464 11.5823 5.10509C10.6255 5.24554 9.71628 5.47283 8.85476 5.78697C7.99324 6.1011 7.28785 6.53218 6.73858 7.08019C6.03319 7.78558 5.54725 8.48314 5.28077 9.17285C5.01429 9.86257 4.88105 10.5288 4.88105 11.1715C4.88105 12.0963 5.05755 12.9077 5.41056 13.6055C5.76357 14.3034 6.07301 14.7931 6.33886 15.0746C6.99723 13.8206 7.86721 12.6174 8.94882 11.4649C10.0304 10.3125 11.2923 9.36817 12.7344 8.63205C11.6058 9.6196 10.6223 10.7366 9.784 11.9831C8.94568 13.2296 8.31459 14.6834 7.89073 16.3444Z" fill="#CACACA"/>
</svg>
