<svg width="22" height="22" viewBox="0 0 22 22" fill="none" xmlns="http://www.w3.org/2000/svg">
<path d="M8.47388 11.2331C6.5632 11.0521 4.2067 11.1166 2.91076 11.8849L2.77416 11.9663C2.34956 12.2174 2.03573 12.6323 2.00804 13.1345C1.96835 13.8876 2.05419 15.0984 2.75846 16.3508C4.00825 18.5724 6.17738 19.5936 7.09579 19.9423C7.36901 20.0465 7.66807 20.0048 7.92006 19.8561C8.38435 19.5813 8.58188 19.0015 8.45911 18.4653C8.11759 16.9685 8.04006 14.8179 9.13477 13.1458C8.89328 12.8971 8.7087 12.5963 8.5944 12.2654C8.4801 11.9344 8.43893 11.5814 8.47388 11.2321M12.9949 12.1028C12.9092 12.4228 12.7589 12.7207 12.5537 12.9773C12.3486 13.2338 12.0932 13.4433 11.8042 13.592C12.6054 15.3958 13.8524 17.498 15.164 18.2749L15.3006 18.3564C15.7252 18.6074 16.2329 18.6785 16.6695 18.4511C17.6473 17.9418 18.4599 17.1519 19.0085 16.1774C20.2582 13.9558 20.0358 11.5163 19.8706 10.5263C19.8442 10.3819 19.7871 10.2451 19.7031 10.1261C19.6192 10.007 19.5105 9.90845 19.3851 9.8376C18.9208 9.56192 18.3337 9.67655 17.9424 10.0527C16.8273 11.127 15.0006 12.296 12.9949 12.1028ZM10.236 9.16971C10.5812 9.08558 10.9407 9.0843 11.2864 9.16596C11.6322 9.24762 11.955 9.41002 12.2297 9.64055C13.3373 8.03191 14.4616 5.90506 14.4616 4.36843V4.20737C14.4616 3.70527 14.2678 3.21832 13.8579 2.94358C12.9393 2.32846 11.8663 2.00064 10.7695 2C8.26989 2 6.32322 3.41821 5.57002 4.05958C5.46108 4.15529 5.37419 4.27461 5.31561 4.40894C5.25703 4.54328 5.22822 4.68929 5.23127 4.83643C5.23127 5.3859 5.62079 5.85012 6.13492 6.01022C7.54254 6.44601 9.35261 7.4237 10.236 9.16971ZM13.077 11.4737C13.077 12.1019 12.8339 12.7043 12.4012 13.1484C11.9684 13.5926 11.3815 13.8421 10.7695 13.8421C10.1575 13.8421 9.57051 13.5926 9.13776 13.1484C8.705 12.7043 8.46188 12.1019 8.46188 11.4737C8.46188 10.8456 8.705 10.2431 9.13776 9.79898C9.57051 9.35481 10.1575 9.10528 10.7695 9.10528C11.3815 9.10528 11.9684 9.35481 12.4012 9.79898C12.8339 10.2431 13.077 10.8456 13.077 11.4737Z" stroke="#CACACA" stroke-width="1.38455" stroke-linecap="round" stroke-linejoin="round"/>
</svg>
