<svg width="26" height="26" viewBox="0 0 26 26" fill="none" xmlns="http://www.w3.org/2000/svg">
<path d="M18.5 10.5C18.5 12.3 17.635 13.9 16.296 14.903L16.896 15.703C17.705 15.0982 18.3617 14.3129 18.8137 13.4097C19.2658 12.5064 19.5008 11.5101 19.5 10.5H18.5ZM13 5C14.4587 5 15.8576 5.57946 16.8891 6.61091C17.9205 7.64236 18.5 9.04131 18.5 10.5H19.5C19.5 8.77609 18.8152 7.12279 17.5962 5.90381C16.3772 4.68482 14.7239 4 13 4V5ZM7.5 10.5C7.5 9.04131 8.07946 7.64236 9.11091 6.61091C10.1424 5.57946 11.5413 5 13 5V4C11.2761 4 9.62279 4.68482 8.40381 5.90381C7.18482 7.12279 6.5 8.77609 6.5 10.5H7.5ZM9.704 14.903C9.01921 14.3913 8.46335 13.7269 8.08071 12.9624C7.69807 12.198 7.49922 11.3548 7.5 10.5H6.5C6.49922 11.5101 6.73422 12.5064 7.18628 13.4097C7.63835 14.3129 8.29501 15.0982 9.104 15.703L9.704 14.903ZM11.497 20.253C11.4665 18.7907 11.1643 17.3468 10.606 15.995L9.682 16.376C10.192 17.61 10.47 18.933 10.498 20.274L11.497 20.253ZM14.565 20.158C14.0791 20.4009 13.5433 20.5274 13 20.5274C12.4567 20.5274 11.9209 20.4009 11.435 20.158L10.988 21.053C11.6127 21.3653 12.3016 21.5278 13 21.5278C13.6984 21.5278 14.3873 21.3653 15.012 21.053L14.565 20.158ZM15.395 15.995C14.8362 17.3471 14.5337 18.7913 14.503 20.254L15.503 20.274C15.53 18.933 15.808 17.611 16.318 16.377L15.395 15.995ZM15.012 21.053C15.1569 20.9801 15.2791 20.869 15.3655 20.7318C15.4519 20.5945 15.4991 20.4362 15.502 20.274L14.502 20.254C14.5026 20.2337 14.5089 20.2141 14.52 20.1971C14.5311 20.1802 14.5467 20.1666 14.565 20.158L15.012 21.053ZM10.498 20.274C10.5009 20.4362 10.5481 20.5945 10.6345 20.7318C10.7209 20.869 10.8431 20.9801 10.988 21.053L11.435 20.158C11.453 20.1667 11.4683 20.1802 11.4792 20.1969C11.4901 20.2136 11.4963 20.233 11.497 20.253L10.498 20.274ZM9.104 15.704C9.422 15.942 9.494 16.001 9.524 16.04L10.314 15.427C10.179 15.253 9.961 15.097 9.704 14.903L9.104 15.704ZM10.606 15.995C10.519 15.785 10.446 15.598 10.314 15.427L9.524 16.04C9.556 16.082 9.578 16.125 9.682 16.376L10.606 15.995ZM16.296 14.904C16.039 15.096 15.821 15.254 15.686 15.427L16.476 16.04C16.506 16.001 16.577 15.942 16.896 15.703L16.296 14.904ZM16.318 16.377C16.422 16.126 16.444 16.082 16.477 16.04L15.687 15.427C15.554 15.598 15.481 15.785 15.394 15.995L16.318 16.377Z" fill="white" fill-opacity="0.5"/>
<path d="M15.5 17C13.8952 17.6421 12.1048 17.6421 10.5 17" stroke="white" stroke-opacity="0.5" stroke-width="0.8"/>
</svg>
