<svg width="22" height="22" viewBox="0 0 22 22" fill="none" xmlns="http://www.w3.org/2000/svg">
<path fill-rule="evenodd" clip-rule="evenodd" d="M12 2C12 1.73478 11.8946 1.48043 11.7071 1.29289C11.5196 1.10536 11.2652 1 11 1C10.7348 1 10.4804 1.10536 10.2929 1.29289C10.1054 1.48043 10 1.73478 10 2V4C10 4.26522 10.1054 4.51957 10.2929 4.70711C10.4804 4.89464 10.7348 5 11 5C11.2652 5 11.5196 4.89464 11.7071 4.70711C11.8946 4.51957 12 4.26522 12 4V2ZM5.343 3.929C5.15355 3.75134 4.90241 3.65437 4.64273 3.65858C4.38305 3.6628 4.13519 3.76788 3.95161 3.95159C3.76803 4.13531 3.66312 4.38324 3.65909 4.64292C3.65505 4.90261 3.75221 5.15368 3.93 5.343L5.344 6.757C5.5326 6.93916 5.7852 7.03995 6.0474 7.03767C6.3096 7.0354 6.56041 6.93023 6.74582 6.74482C6.93123 6.55941 7.0364 6.3086 7.03867 6.0464C7.04095 5.7842 6.94016 5.5316 6.758 5.343L5.343 3.929ZM18.071 5.343C18.2532 5.1544 18.354 4.9018 18.3517 4.6396C18.3494 4.3774 18.2442 4.12659 18.0588 3.94118C17.8734 3.75577 17.6226 3.6506 17.3604 3.64833C17.0982 3.64605 16.8456 3.74684 16.657 3.929L15.243 5.343C15.0608 5.5316 14.96 5.7842 14.9623 6.0464C14.9646 6.3086 15.0698 6.55941 15.2552 6.74482C15.4406 6.93023 15.6914 7.0354 15.9536 7.03767C16.2158 7.03995 16.4684 6.93916 16.657 6.757L18.071 5.343ZM11 6C9.67392 6 8.40215 6.52678 7.46447 7.46447C6.52678 8.40215 6 9.67392 6 11C6 12.3261 6.52678 13.5979 7.46447 14.5355C8.40215 15.4732 9.67392 16 11 16C12.3261 16 13.5979 15.4732 14.5355 14.5355C15.4732 13.5979 16 12.3261 16 11C16 9.67392 15.4732 8.40215 14.5355 7.46447C13.5979 6.52678 12.3261 6 11 6ZM2 10C1.73478 10 1.48043 10.1054 1.29289 10.2929C1.10536 10.4804 1 10.7348 1 11C1 11.2652 1.10536 11.5196 1.29289 11.7071C1.48043 11.8946 1.73478 12 2 12H4C4.26522 12 4.51957 11.8946 4.70711 11.7071C4.89464 11.5196 5 11.2652 5 11C5 10.7348 4.89464 10.4804 4.70711 10.2929C4.51957 10.1054 4.26522 10 4 10H2ZM18 10C17.7348 10 17.4804 10.1054 17.2929 10.2929C17.1054 10.4804 17 10.7348 17 11C17 11.2652 17.1054 11.5196 17.2929 11.7071C17.4804 11.8946 17.7348 12 18 12H20C20.2652 12 20.5196 11.8946 20.7071 11.7071C20.8946 11.5196 21 11.2652 21 11C21 10.7348 20.8946 10.4804 20.7071 10.2929C20.5196 10.1054 20.2652 10 20 10H18ZM6.757 16.657C6.85251 16.5648 6.92869 16.4544 6.9811 16.3324C7.03351 16.2104 7.0611 16.0792 7.06225 15.9464C7.0634 15.8136 7.0381 15.6819 6.98782 15.559C6.93754 15.4361 6.86329 15.3245 6.76939 15.2306C6.6755 15.1367 6.56385 15.0625 6.44095 15.0122C6.31806 14.9619 6.18638 14.9366 6.0536 14.9377C5.92082 14.9389 5.7896 14.9665 5.6676 15.0189C5.54559 15.0713 5.43525 15.1475 5.343 15.243L3.929 16.657C3.83349 16.7492 3.75731 16.8596 3.7049 16.9816C3.65249 17.1036 3.6249 17.2348 3.62375 17.3676C3.6226 17.5004 3.6479 17.6321 3.69818 17.755C3.74846 17.8778 3.82271 17.9895 3.9166 18.0834C4.0105 18.1773 4.12215 18.2515 4.24505 18.3018C4.36794 18.3521 4.49962 18.3774 4.6324 18.3763C4.76518 18.3751 4.8964 18.3475 5.0184 18.2951C5.14041 18.2427 5.25075 18.1665 5.343 18.071L6.757 16.657ZM16.657 15.243C16.4684 15.0608 16.2158 14.96 15.9536 14.9623C15.6914 14.9646 15.4406 15.0698 15.2552 15.2552C15.0698 15.4406 14.9646 15.6914 14.9623 15.9536C14.96 16.2158 15.0608 16.4684 15.243 16.657L16.657 18.071C16.8456 18.2532 17.0982 18.354 17.3604 18.3517C17.6226 18.3494 17.8734 18.2442 18.0588 18.0588C18.2442 17.8734 18.3494 17.6226 18.3517 17.3604C18.354 17.0982 18.2532 16.8456 18.071 16.657L16.657 15.243ZM12 18C12 17.7348 11.8946 17.4804 11.7071 17.2929C11.5196 17.1054 11.2652 17 11 17C10.7348 17 10.4804 17.1054 10.2929 17.2929C10.1054 17.4804 10 17.7348 10 18V20C10 20.2652 10.1054 20.5196 10.2929 20.7071C10.4804 20.8946 10.7348 21 11 21C11.2652 21 11.5196 20.8946 11.7071 20.7071C11.8946 20.5196 12 20.2652 12 20V18Z" fill="#262626"/>
</svg>
