<svg width="45" height="45" viewBox="0 0 45 45" fill="none" xmlns="http://www.w3.org/2000/svg">
<path d="M21.0815 27.2799C20.9308 27.1389 20.8462 26.9477 20.8462 26.7484C20.8462 26.549 20.9308 26.3578 21.0815 26.2168L25.06 22.4955L21.0815 18.7741C20.9351 18.6323 20.8541 18.4424 20.8559 18.2453C20.8577 18.0481 20.9422 17.8596 21.0913 17.7202C21.2403 17.5808 21.4419 17.5017 21.6526 17.5C21.8633 17.4983 22.0664 17.5741 22.218 17.711L26.7647 21.9639C26.9154 22.1049 27 22.2961 27 22.4955C27 22.6948 26.9154 22.886 26.7647 23.027L22.218 27.2799C22.0672 27.4208 21.8628 27.5 21.6497 27.5C21.4366 27.5 21.2322 27.4208 21.0815 27.2799Z" fill="white" fill-opacity="0.5"/>
</svg>
