<svg width="35" height="35" viewBox="0 0 35 35" fill="none" xmlns="http://www.w3.org/2000/svg">
<path fill-rule="evenodd" clip-rule="evenodd" d="M18.6423 10.1429C18.6423 9.83975 18.5219 9.54906 18.3076 9.33474C18.0932 9.12041 17.8025 9 17.4994 9C17.1963 9 16.9056 9.12041 16.6913 9.33474C16.477 9.54906 16.3566 9.83975 16.3566 10.1429V15.9451C16.3566 16.2482 16.477 16.5389 16.6913 16.7533C16.9056 16.9676 17.1963 17.088 17.4994 17.088C17.8025 17.088 18.0932 16.9676 18.3076 16.7533C18.5219 16.5389 18.6423 16.2482 18.6423 15.9451V10.1429ZM13.9829 12.496C14.2196 12.3088 14.3727 12.0356 14.4088 11.736C14.4448 11.4363 14.3609 11.1346 14.1753 10.8966C13.9897 10.6586 13.7174 10.5037 13.418 10.4657C13.1186 10.4277 12.8163 10.5097 12.5771 10.6937C11.264 11.7188 10.3037 13.1282 9.8301 14.7254C9.35651 16.3225 9.39331 18.0276 9.93535 19.6028C10.4774 21.178 11.4976 22.5447 12.8537 23.5122C14.2098 24.4797 15.8341 24.9997 17.5 24.9997C19.1659 24.9997 20.7901 24.4797 22.1463 23.5122C23.5024 22.5447 24.5226 21.178 25.0647 19.6028C25.6067 18.0276 25.6435 16.3225 25.1699 14.7254C24.6963 13.1282 23.736 11.7188 22.4229 10.6937C22.1839 10.5072 21.8805 10.4232 21.5796 10.4603C21.2787 10.4973 21.0048 10.6524 20.8183 10.8914C20.6317 11.1304 20.5477 11.4337 20.5848 11.7347C20.6219 12.0356 20.777 12.3094 21.016 12.496C21.9539 13.2282 22.6398 14.235 22.978 15.3758C23.3162 16.5166 23.2899 17.7345 22.9027 18.8596C22.5155 19.9847 21.7867 20.9609 20.8181 21.6519C19.8495 22.3429 18.6893 22.7144 17.4994 22.7144C16.3096 22.7144 15.1494 22.3429 14.1807 21.6519C13.2121 20.9609 12.4834 19.9847 12.0962 18.8596C11.709 17.7345 11.6826 16.5166 12.0209 15.3758C12.3591 14.235 13.045 13.2282 13.9829 12.496Z" fill="#FF3B89"/>
</svg>
