<svg width="40" height="40" viewBox="0 0 40 40" fill="none" xmlns="http://www.w3.org/2000/svg">
<path d="M18.5859 16.586C18.9759 16.196 19.4859 16.001 19.9959 16C20.2592 15.9995 20.52 16.0511 20.7634 16.1516C21.0067 16.2522 21.2278 16.3998 21.4139 16.586C21.8039 16.976 21.9999 17.488 21.9999 18C21.9999 18.512 21.8049 19.024 21.4139 19.414C21.2278 19.6002 21.0067 19.7478 20.7634 19.8484C20.52 19.9489 20.2592 20.0005 19.9959 20L19.9999 21M29 20C29 24.9706 24.9706 29 20 29C15.0294 29 11 24.9706 11 20C11 15.0294 15.0294 11 20 11C24.9706 11 29 15.0294 29 20ZM20 24H20.01V24.01H20V24Z" stroke="white" stroke-opacity="0.5" stroke-width="1.5" stroke-linecap="round" stroke-linejoin="round"/>
</svg>
