<svg width="40" height="40" viewBox="0 0 40 40" fill="none" xmlns="http://www.w3.org/2000/svg">
<g filter="url(#filter0_d_19517_35963)">
<path d="M20 10.25C25.3848 10.25 29.75 14.6152 29.75 20C29.75 25.3848 25.3848 29.75 20 29.75C14.6152 29.75 10.25 25.3848 10.25 20C10.25 14.6152 14.6152 10.25 20 10.25ZM20.0039 23.25C19.6157 23.25 19.2964 23.5449 19.2578 23.9229L19.2539 24V24.0098C19.2539 24.424 19.5897 24.7598 20.0039 24.7598H20.0137C20.4279 24.7598 20.7637 24.424 20.7637 24.0098V24C20.7637 23.5858 20.4279 23.25 20.0137 23.25H20.0039ZM19.998 15.25C19.2978 15.2515 18.5953 15.5199 18.0596 16.0557C17.7667 16.3485 17.7667 16.8233 18.0596 17.1162C18.3525 17.4091 18.8272 17.4091 19.1201 17.1162C19.3642 16.8722 19.6815 16.7507 20.001 16.75C20.1654 16.7497 20.3285 16.782 20.4805 16.8447C20.6326 16.9076 20.7714 16.9998 20.8877 17.1162C21.1317 17.3602 21.2539 17.6793 21.2539 18C21.2539 18.3215 21.1322 18.6397 20.8887 18.8828L20.8877 18.8838C20.7714 19.0002 20.6326 19.0924 20.4805 19.1553C20.3285 19.218 20.1654 19.2503 20.001 19.25C19.8014 19.2497 19.6097 19.3294 19.4688 19.4707C19.3279 19.612 19.2492 19.8034 19.25 20.0029L19.2539 21.0029L19.2578 21.0801C19.2979 21.4579 19.6186 21.7515 20.0068 21.75C20.3953 21.7484 20.7133 21.4518 20.75 21.0732L20.7539 20.9971L20.752 20.6436C20.854 20.6147 20.9553 20.5826 21.0537 20.542C21.3883 20.4037 21.6923 20.2003 21.9482 19.9443L21.9473 19.9434C22.485 19.4066 22.7539 18.7021 22.7539 18C22.7539 17.3848 22.5473 16.7682 22.1367 16.2646L21.9482 16.0557C21.6923 15.7997 21.3883 15.5963 21.0537 15.458C20.7192 15.3198 20.36 15.2494 19.998 15.25Z" fill="url(#paint0_linear_19517_35963)"/>
</g>
<defs>
<filter id="filter0_d_19517_35963" x="5.25" y="5.25" width="29.5" height="29.5" filterUnits="userSpaceOnUse" color-interpolation-filters="sRGB">
<feFlood flood-opacity="0" result="BackgroundImageFix"/>
<feColorMatrix in="SourceAlpha" type="matrix" values="0 0 0 0 0 0 0 0 0 0 0 0 0 0 0 0 0 0 127 0" result="hardAlpha"/>
<feOffset/>
<feGaussianBlur stdDeviation="2.5"/>
<feComposite in2="hardAlpha" operator="out"/>
<feColorMatrix type="matrix" values="0 0 0 0 0.968627 0 0 0 0 0.0588235 0 0 0 0 0.545098 0 0 0 0.5 0"/>
<feBlend mode="normal" in2="BackgroundImageFix" result="effect1_dropShadow_19517_35963"/>
<feBlend mode="normal" in="SourceGraphic" in2="effect1_dropShadow_19517_35963" result="shape"/>
</filter>
<linearGradient id="paint0_linear_19517_35963" x1="20" y1="10.25" x2="20" y2="29.75" gradientUnits="userSpaceOnUse">
<stop stop-color="#F70F8B"/>
<stop offset="1" stop-color="#FC08B7"/>
</linearGradient>
</defs>
</svg>
