<svg width="22" height="22" viewBox="0 0 22 22" fill="none" xmlns="http://www.w3.org/2000/svg">
<path d="M12.7409 6.82192C12.992 7.95429 13.3631 8.88347 14.2357 9.43338C14.8153 9.79862 15.4539 9.94066 16.1516 9.8595C16.8493 9.77834 17.5212 9.51071 18.1672 9.05662L17.4248 8.58878C17.3141 8.51902 17.2511 8.41036 17.2357 8.26283C17.2204 8.11529 17.2568 7.9678 17.3449 7.82035C17.433 7.67291 17.5444 7.57244 17.679 7.51894C17.8137 7.46544 17.9361 7.47392 18.0464 7.54438L19.6094 8.5293C19.7201 8.59906 19.783 8.70763 19.7981 8.855C19.8132 9.00238 19.7769 9.14995 19.6893 9.29772L18.4461 11.3865C18.358 11.5345 18.2468 11.6348 18.1123 11.6874C17.9778 11.7401 17.8552 11.7317 17.7445 11.6625C17.6339 11.5932 17.5709 11.4846 17.5555 11.3365C17.5401 11.1885 17.5764 11.041 17.6646 10.8941L17.9754 10.3719C17.2391 10.7815 16.4881 11.0052 15.7223 11.043C14.9566 11.0808 14.2512 10.8968 13.6063 10.4908C13.0658 10.1502 12.6395 9.69296 12.3274 9.11905C12.0152 8.54515 11.8231 7.91257 11.751 7.22134C11.7237 6.43221 12.6206 6.27935 12.7409 6.82192Z" fill="#CACACA" stroke="#CACACA" stroke-width="0.180002"/>
<path d="M9.25911 6.82192C9.00796 7.95429 8.63695 8.88347 7.7643 9.43338C7.18471 9.79862 6.54606 9.94066 5.84836 9.8595C5.15065 9.77834 4.47879 9.51071 3.83278 9.05662L4.57518 8.58878C4.68589 8.51902 4.74891 8.41036 4.76426 8.26283C4.77961 8.11529 4.74322 7.9678 4.65511 7.82035C4.56699 7.67291 4.45561 7.57244 4.32097 7.51894C4.18633 7.46544 4.06386 7.47392 3.95357 7.54438L2.39062 8.5293C2.27992 8.59906 2.21702 8.70763 2.20193 8.855C2.18685 9.00238 2.2231 9.14995 2.31069 9.29772L3.55391 11.3865C3.64197 11.5345 3.75325 11.6348 3.88774 11.6874C4.02223 11.7401 4.1448 11.7317 4.25545 11.6625C4.36611 11.5932 4.42914 11.4846 4.44454 11.3365C4.45994 11.1885 4.42355 11.041 4.33538 10.8941L4.02458 10.3719C4.7609 10.7815 5.51193 11.0052 6.27768 11.043C7.04343 11.0808 7.74876 10.8968 8.39368 10.4908C8.9342 10.1502 9.36052 9.69296 9.67264 9.11905C9.98476 8.54515 10.1769 7.91257 10.249 7.22134C10.2763 6.43221 9.37944 6.27935 9.25911 6.82192Z" fill="#CACACA" stroke="#CACACA" stroke-width="0.180002"/>
<path d="M9.25911 11.7243C9.00796 12.8566 8.63695 13.7858 7.7643 14.3357C7.18471 14.701 6.54606 14.843 5.84836 14.7618C5.15065 14.6807 4.47879 14.4131 3.83278 13.959L4.57518 13.4911C4.68589 13.4214 4.74891 13.3127 4.76426 13.1652C4.77961 13.0176 4.74322 12.8701 4.65511 12.7227C4.56699 12.5753 4.45561 12.4748 4.32097 12.4213C4.18633 12.3678 4.06386 12.3763 3.95357 12.4467L2.39062 13.4316C2.27992 13.5014 2.21702 13.61 2.20193 13.7573C2.18685 13.9047 2.2231 14.0523 2.31069 14.2001L3.55391 16.2889C3.64197 16.4368 3.75325 16.5371 3.88774 16.5898C4.02223 16.6424 4.1448 16.6341 4.25545 16.5648C4.36611 16.4956 4.42914 16.3869 4.44454 16.2389C4.45994 16.0908 4.42355 15.9433 4.33538 15.7964L4.02458 15.2742C4.7609 15.6838 5.51193 15.9076 6.27768 15.9454C7.04343 15.9832 7.74876 15.7991 8.39368 15.3932C8.9342 15.0526 9.36052 14.5953 9.67264 14.0214C9.98476 13.4475 10.1769 12.8149 10.249 12.1237C10.2763 11.3346 9.37944 11.1817 9.25911 11.7243Z" fill="#CACACA" stroke="#CACACA" stroke-width="0.180002"/>
<path d="M12.6296 11.8727C12.8807 13.0051 13.2517 13.9343 14.1244 14.4842C14.704 14.8494 15.3426 14.9914 16.0403 14.9103C16.738 14.8291 17.4099 14.5615 18.0559 14.1074L17.3135 13.6396C17.2028 13.5698 17.1398 13.4611 17.1244 13.3136C17.1091 13.1661 17.1454 13.0186 17.2336 12.8711C17.3217 12.7237 17.4331 12.6232 17.5677 12.5697C17.7023 12.5162 17.8248 12.5247 17.9351 12.5952L19.498 13.5801C19.6088 13.6498 19.6717 13.7584 19.6867 13.9058C19.7018 14.0532 19.6656 14.2007 19.578 14.3485L18.3348 16.4373C18.2467 16.5853 18.1354 16.6856 18.0009 16.7382C17.8664 16.7908 17.7439 16.7825 17.6332 16.7133C17.5226 16.644 17.4595 16.5354 17.4441 16.3873C17.4287 16.2393 17.4651 16.0918 17.5533 15.9448L17.8641 15.4226C17.1278 15.8323 16.3767 16.056 15.611 16.0938C14.8452 16.1316 14.1399 15.9475 13.495 15.5416C12.9545 15.201 12.5282 14.7437 12.216 14.1698C11.9039 13.5959 11.7118 12.9634 11.6396 12.2721C11.6123 11.483 12.5092 11.3301 12.6296 11.8727Z" fill="#CACACA" stroke="#CACACA" stroke-width="0.180002"/>
</svg>
