<svg width="40" height="40" viewBox="0 0 40 40" fill="none" xmlns="http://www.w3.org/2000/svg">
<path d="M20 12.5459C24.9703 12.5459 28.9996 16.5757 29 21.5459C29 26.5165 24.9706 30.5459 20 30.5459C15.0294 30.5459 11 26.5165 11 21.5459C11.0004 16.5757 15.0297 12.5459 20 12.5459ZM20 14.1455C15.9133 14.1455 12.6 17.4593 12.5996 21.5459C12.5996 25.6328 15.9131 28.9463 20 28.9463C24.0869 28.9463 27.4004 25.6328 27.4004 21.5459C27.4 17.4593 24.0867 14.1455 20 14.1455ZM20.168 17.6514C20.5821 17.6514 20.9178 17.9873 20.918 18.4014V22.0283L23.0605 24.1709C23.3534 24.4638 23.3533 24.9385 23.0605 25.2314C22.7677 25.5243 22.2929 25.5243 22 25.2314L19.6377 22.8691C19.4972 22.7285 19.418 22.5377 19.418 22.3389V18.4014C19.4182 17.9874 19.7539 17.6514 20.168 17.6514ZM22.7002 9.84766C23.1969 9.84788 23.5994 10.2513 23.5996 10.748C23.5996 11.245 23.1971 11.6482 22.7002 11.6484H20.9004V12.5449H19.1006V11.6484H17.2998C16.8028 11.6484 16.3994 11.2451 16.3994 10.748C16.3996 10.2512 16.8029 9.84766 17.2998 9.84766H22.7002Z" fill="white" fill-opacity="0.5"/>
</svg>
