<svg width="22" height="22" viewBox="0 0 22 22" fill="none" xmlns="http://www.w3.org/2000/svg">
<path d="M10.3299 19.3185V16.9931L9.05103 17.7235L8.42513 17.3444V16.5271L10.3299 15.4322V13.904L8.80608 14.8027V13.1835L7.28227 13.9513V16.1476L6.65256 16.5986L6.13942 16.1912V14.7202L4.01599 15.8649L3.0918 15.4986V14.5713L5.25751 13.409L3.8537 12.7409V11.8902L4.66246 11.477L6.64875 12.6019L8.02475 11.8378L7.99351 11.814L6.59732 11.0355L7.95656 10.2186L6.59389 9.45482L4.60799 10.5739L3.8537 10.2186V9.37269L5.20303 8.64742L3.0918 7.52799V6.60069L3.97599 6.19222L6.13942 7.36445V5.86992L6.70513 5.45669L7.44532 5.88935L7.42399 8.12785L8.82323 8.90592L8.8358 7.32522L10.3299 8.09485V6.56695L8.42513 5.47135V4.65955L9.05103 4.27455L10.3299 5.00495V2.68469L11.0895 2.19922L11.8537 2.68469V5.00495L13.3417 4.26025L14.1394 4.70722V5.43762L11.8537 6.56695V8.09485L13.3775 7.26362V8.92609L14.9013 8.16195V5.76982L15.4556 5.45229L16.0442 5.76945V7.29735L18.2697 6.16802L19.0918 6.61462V7.47959L16.9985 8.64192L18.3299 9.35839V10.1849L17.6327 10.5501L15.6034 9.39212L14.2019 10.2523L15.5539 11.0693L14.16 11.8473L15.5969 12.5777L17.6499 11.4829L18.3299 11.9287V12.7171L17.0651 13.409L19.0918 14.5713V15.4843L18.131 15.8645L16.0442 14.7689V16.2191L15.4651 16.6037L14.9013 16.2191V14.0184L13.3775 13.2069V14.7352L11.8537 13.9036V15.4319L13.7585 16.5267V17.3917L13.131 17.7232L11.8537 16.9935V19.3189L11.0895 19.7992L10.3299 19.3185ZM9.77142 11.033L10.4899 12.0992H11.8286L12.443 11.033L11.7939 9.89922H10.4552L9.77142 11.033Z" fill="#CACACA" stroke="#CACACA" stroke-width="0.16"/>
</svg>
