<svg width="22" height="22" viewBox="0 0 22 22" fill="none" xmlns="http://www.w3.org/2000/svg">
<path d="M4.26786 18.2533C3.82875 17.8997 3.425 17.5022 3.05662 17.0607C2.68823 16.6193 2.37403 16.1491 2.11401 15.6501C2.02652 15.4763 1.98939 15.2912 2.0026 15.0951C2.01581 14.8989 2.08304 14.7255 2.20429 14.5749C2.29522 14.462 2.40619 14.3756 2.5372 14.3156C2.66821 14.2557 2.81421 14.2285 2.9752 14.234C4.40912 14.2513 5.76859 13.95 7.05362 13.3303C8.33865 12.7105 9.43077 11.8424 10.33 10.7258C11.2292 9.60918 11.8391 8.35767 12.1598 6.97123C12.4805 5.58479 12.4842 4.18671 12.1708 2.77698C12.1436 2.63098 12.1454 2.48759 12.176 2.34681C12.2066 2.20603 12.2674 2.07918 12.3584 1.96626C12.4796 1.81571 12.6316 1.71064 12.8145 1.65106C12.9973 1.59148 13.1827 1.58569 13.3708 1.63369C13.9262 1.79147 14.4589 2.00325 14.9687 2.26906C15.4785 2.53486 15.953 2.84457 16.3921 3.1982C17.4334 4.03679 18.2528 5.0226 18.8502 6.1556C19.4476 7.28861 19.8124 8.4664 19.9447 9.68898C20.077 10.9115 19.9719 12.1402 19.6294 13.3751C19.2869 14.6099 18.6963 15.7475 17.8576 16.7879C17.0189 17.8283 16.0331 18.6477 14.9002 19.246C13.7672 19.8443 12.5895 20.2091 11.3668 20.3405C10.1441 20.4719 8.91542 20.3668 7.6807 20.0252C6.44598 19.6835 5.30836 19.0929 4.26786 18.2533Z" fill="white"/>
</svg>
