<svg width="40" height="40" viewBox="0 0 40 40" fill="none" xmlns="http://www.w3.org/2000/svg">
<g filter="url(#filter0_d_19517_35911)">
<path d="M16.807 11H12.932C12.6782 10.9997 12.4269 11.0495 12.1923 11.1465C11.9578 11.2435 11.7447 11.3858 11.5653 11.5653C11.3858 11.7447 11.2435 11.9578 11.1465 12.1923C11.0495 12.4269 10.9997 12.6782 11 12.932V16.807C10.9995 17.3205 11.2025 17.8132 11.5647 18.1773C11.9268 18.5413 12.4185 18.7469 12.932 18.749H16.807C17.0621 18.7493 17.3148 18.6992 17.5505 18.6017C17.7862 18.5042 18.0004 18.3612 18.1808 18.1808C18.3612 18.0004 18.5042 17.7862 18.6017 17.5505C18.6992 17.3148 18.7493 17.0621 18.749 16.807V12.932C18.7469 12.4185 18.5413 11.9268 18.1773 11.5647C17.8132 11.2025 17.3205 10.9995 16.807 11ZM27.568 11H23.693C23.1795 10.9995 22.6868 11.2025 22.3227 11.5647C21.9587 11.9268 21.7531 12.4185 21.751 12.932V16.807C21.7513 17.322 21.956 17.8158 22.3201 18.1799C22.6842 18.544 23.178 18.7487 23.693 18.749H27.568C28.0815 18.7469 28.5732 18.5413 28.9353 18.1773C29.2975 17.8132 29.5005 17.3205 29.5 16.807V12.932C29.5003 12.6782 29.4505 12.4269 29.3535 12.1923C29.2565 11.9578 29.1142 11.7447 28.9347 11.5653C28.7553 11.3858 28.5422 11.2435 28.3077 11.1465C28.0731 11.0495 27.8218 10.9997 27.568 11ZM27.568 21.75H23.693C23.1793 21.7495 22.6864 21.9527 22.3224 22.315C21.9583 22.6774 21.7529 23.1693 21.751 23.683V27.558C21.7507 27.8131 21.8008 28.0658 21.8983 28.3015C21.9958 28.5372 22.1388 28.7514 22.3192 28.9318C22.4996 29.1122 22.7138 29.2552 22.9495 29.3527C23.1853 29.4502 23.4379 29.5003 23.693 29.5H27.568C28.0815 29.4979 28.5732 29.2923 28.9353 28.9283C29.2975 28.5642 29.5005 28.0715 29.5 27.558V23.683C29.5003 23.4292 29.4505 23.1779 29.3535 22.9433C29.2565 22.7088 29.1142 22.4957 28.9347 22.3163C28.7553 22.1368 28.5422 21.9945 28.3077 21.8975C28.0731 21.8005 27.8218 21.7507 27.568 21.751M16.807 21.75H12.932C12.4186 21.7529 11.9272 21.9589 11.5652 22.323C11.2032 22.687 11 23.1796 11 23.693V27.568C10.9997 27.8218 11.0495 28.0731 11.1465 28.3077C11.2435 28.5422 11.3858 28.7553 11.5653 28.9347C11.7447 29.1142 11.9578 29.2565 12.1923 29.3535C12.4269 29.4505 12.6782 29.5003 12.932 29.5H16.807C17.3205 29.5005 17.8132 29.2975 18.1773 28.9353C18.5413 28.5732 18.7469 28.0815 18.749 27.568V23.693C18.7493 23.4379 18.6992 23.1853 18.6017 22.9495C18.5042 22.7138 18.3612 22.4996 18.1808 22.3192C18.0004 22.1388 17.7862 21.9958 17.5505 21.8983C17.3148 21.8008 17.0621 21.7507 16.807 21.751" fill="url(#paint0_linear_19517_35911)"/>
<path d="M27.568 21.75H23.693C23.1793 21.7495 22.6864 21.9527 22.3224 22.315C21.9583 22.6774 21.7529 23.1693 21.751 23.683V27.558C21.7507 27.8131 21.8008 28.0658 21.8983 28.3015C21.9958 28.5372 22.1388 28.7514 22.3192 28.9318C22.4996 29.1122 22.7138 29.2552 22.9495 29.3527C23.1853 29.4502 23.4379 29.5003 23.693 29.5H27.568C28.0815 29.4979 28.5732 29.2923 28.9353 28.9283C29.2975 28.5642 29.5005 28.0715 29.5 27.558V23.683C29.5003 23.4292 29.4505 23.1779 29.3535 22.9433C29.2565 22.7088 29.1142 22.4957 28.9347 22.3163C28.7553 22.1368 28.5422 21.9945 28.3077 21.8975C28.0731 21.8005 27.8218 21.7507 27.568 21.751M16.807 21.75H12.932C12.4186 21.7529 11.9272 21.9589 11.5652 22.323C11.2032 22.687 11 23.1796 11 23.693V27.568C10.9997 27.8218 11.0495 28.0731 11.1465 28.3077C11.2435 28.5422 11.3858 28.7553 11.5653 28.9347C11.7447 29.1142 11.9578 29.2565 12.1923 29.3535C12.4269 29.4505 12.6782 29.5003 12.932 29.5H16.807C17.3205 29.5005 17.8132 29.2975 18.1773 28.9353C18.5413 28.5732 18.7469 28.0815 18.749 27.568V23.693C18.7493 23.4379 18.6992 23.1853 18.6017 22.9495C18.5042 22.7138 18.3612 22.4996 18.1808 22.3192C18.0004 22.1388 17.7862 21.9958 17.5505 21.8983C17.3148 21.8008 17.0621 21.7507 16.807 21.751M16.807 11H12.932C12.6782 10.9997 12.4269 11.0495 12.1923 11.1465C11.9578 11.2435 11.7447 11.3858 11.5653 11.5653C11.3858 11.7447 11.2435 11.9578 11.1465 12.1923C11.0495 12.4269 10.9997 12.6782 11 12.932V16.807C10.9995 17.3205 11.2025 17.8132 11.5647 18.1773C11.9268 18.5413 12.4185 18.7469 12.932 18.749H16.807C17.0621 18.7493 17.3148 18.6992 17.5505 18.6017C17.7862 18.5042 18.0004 18.3612 18.1808 18.1808C18.3612 18.0004 18.5042 17.7862 18.6017 17.5505C18.6992 17.3148 18.7493 17.0621 18.749 16.807V12.932C18.7469 12.4185 18.5413 11.9268 18.1773 11.5647C17.8132 11.2025 17.3205 10.9995 16.807 11ZM27.568 11H23.693C23.1795 10.9995 22.6868 11.2025 22.3227 11.5647C21.9587 11.9268 21.7531 12.4185 21.751 12.932V16.807C21.7513 17.322 21.956 17.8158 22.3201 18.1799C22.6842 18.544 23.178 18.7487 23.693 18.749H27.568C28.0815 18.7469 28.5732 18.5413 28.9353 18.1773C29.2975 17.8132 29.5005 17.3205 29.5 16.807V12.932C29.5003 12.6782 29.4505 12.4269 29.3535 12.1923C29.2565 11.9578 29.1142 11.7447 28.9347 11.5653C28.7553 11.3858 28.5422 11.2435 28.3077 11.1465C28.0731 11.0495 27.8218 10.9997 27.568 11Z" stroke="url(#paint1_linear_19517_35911)" stroke-width="1.5" stroke-linecap="round" stroke-linejoin="round"/>
</g>
<defs>
<filter id="filter0_d_19517_35911" x="5.25" y="5.25" width="30" height="30" filterUnits="userSpaceOnUse" color-interpolation-filters="sRGB">
<feFlood flood-opacity="0" result="BackgroundImageFix"/>
<feColorMatrix in="SourceAlpha" type="matrix" values="0 0 0 0 0 0 0 0 0 0 0 0 0 0 0 0 0 0 127 0" result="hardAlpha"/>
<feOffset/>
<feGaussianBlur stdDeviation="2.5"/>
<feComposite in2="hardAlpha" operator="out"/>
<feColorMatrix type="matrix" values="0 0 0 0 0.968627 0 0 0 0 0.0588235 0 0 0 0 0.545098 0 0 0 0.5 0"/>
<feBlend mode="normal" in2="BackgroundImageFix" result="effect1_dropShadow_19517_35911"/>
<feBlend mode="normal" in="SourceGraphic" in2="effect1_dropShadow_19517_35911" result="shape"/>
</filter>
<linearGradient id="paint0_linear_19517_35911" x1="20.25" y1="11" x2="20.25" y2="29.5" gradientUnits="userSpaceOnUse">
<stop stop-color="#F70F8B"/>
<stop offset="1" stop-color="#FC08B7"/>
</linearGradient>
<linearGradient id="paint1_linear_19517_35911" x1="20.25" y1="11" x2="20.25" y2="29.5" gradientUnits="userSpaceOnUse">
<stop stop-color="#F70F8B"/>
<stop offset="1" stop-color="#FC08B7"/>
</linearGradient>
</defs>
</svg>
