<svg width="45" height="45" viewBox="0 0 45 45" fill="none" xmlns="http://www.w3.org/2000/svg">
<path d="M27.2799 21.0815C27.1389 20.9308 26.9477 20.8462 26.7484 20.8462C26.549 20.8462 26.3578 20.9308 26.2168 21.0815L22.4955 25.06L18.7741 21.0815C18.6323 20.9351 18.4424 20.8541 18.2453 20.8559C18.0481 20.8577 17.8596 20.9422 17.7202 21.0913C17.5808 21.2403 17.5017 21.4419 17.5 21.6526C17.4983 21.8633 17.5741 22.0664 17.711 22.218L21.9639 26.7647C22.1049 26.9154 22.2961 27 22.4955 27C22.6948 27 22.886 26.9154 23.027 26.7647L27.2799 22.218C27.4208 22.0672 27.5 21.8628 27.5 21.6497C27.5 21.4366 27.4208 21.2322 27.2799 21.0815Z" fill="white" fill-opacity="0.5"/>
</svg>
