<svg width="26" height="26" viewBox="0 0 26 26" fill="none" xmlns="http://www.w3.org/2000/svg">
<path fill-rule="evenodd" clip-rule="evenodd" d="M15.5337 4C18.2763 4 20.5 6.22373 20.5 8.96635V17.074C20.5 19.8167 18.2763 22.0404 15.5337 22.0404H14.0135H11.9865H10.9731H10.4664C7.72373 22.0404 5.5 19.8167 5.5 17.074V8.96635C5.5 6.22373 7.72373 4 10.4664 4H15.5337ZM10.4664 21.2288C8.34309 21.2288 6.5932 19.6365 6.34323 17.5808H19.6568C19.4068 19.6365 17.6569 21.2288 15.5337 21.2288H10.4664ZM6.31156 8.96635C6.31156 6.6715 8.1715 4.81156 10.4664 4.81156H15.5337C17.8285 4.81156 19.6884 6.6715 19.6884 8.96635V16.7702H6.31156V8.96635Z" fill="white" fill-opacity="0.5"/>
<path d="M16.5471 18.5942C16.827 18.5942 17.0538 18.8211 17.0538 19.101C17.0538 19.3808 16.827 19.6077 16.5471 19.6077H15.5337C15.2538 19.6077 15.0269 19.3808 15.0269 19.101C15.0269 18.8211 15.2538 18.5942 15.5337 18.5942H16.5471Z" fill="white" fill-opacity="0.5"/>
<path fill-rule="evenodd" clip-rule="evenodd" d="M13 7.04038C14.0635 7.04038 14.926 7.90288 14.926 8.96635C14.926 10.0298 14.0635 10.8923 13 10.8923C11.9365 10.8923 11.074 10.0298 11.074 8.96635C11.074 7.90288 11.9365 7.04038 13 7.04038ZM11.8856 8.96635C11.8856 8.35066 12.3843 7.85194 13 7.85194C13.6157 7.85194 14.1144 8.35066 14.1144 8.96635C14.1144 9.58204 13.6157 10.0808 13 10.0808C12.3843 10.0808 11.8856 9.58204 11.8856 8.96635Z" fill="white" fill-opacity="0.5"/>
</svg>
