<svg width="26" height="26" viewBox="0 0 26 26" fill="none" xmlns="http://www.w3.org/2000/svg">
<path d="M7.31579 7.78947H15.3684C15.3684 7.78947 19.1579 9.75432 19.1579 14.3263C19.1579 18.8974 15.3684 21.0526 15.3684 21.0526H7.31579C7.31579 21.0526 4 18.2001 4 14.4211M7.31579 7.78947C7.31579 7.78947 4 10.642 4 14.4211M7.31579 7.78947H15.8421M7.31579 7.78947L5.42105 4L16.3158 5.26332L15.8421 7.78947M4 14.4211C10.1579 17.2632 13 13 19.1579 14.4211M15.8421 7.78947H20.1053C20.1053 7.78947 22 9.68421 22 15.3684" stroke="white" stroke-opacity="0.5" stroke-linecap="round" stroke-linejoin="round"/>
</svg>
