<svg width="26" height="26" viewBox="0 0 26 26" fill="none" xmlns="http://www.w3.org/2000/svg">
<path fill-rule="evenodd" clip-rule="evenodd" d="M16.5796 8.44772C17.088 8.44772 17.5005 8.86497 17.5005 9.37919V16.6208C17.5005 17.135 17.088 17.5523 16.5796 17.5523H6.35213C5.84376 17.5523 5.43125 17.135 5.43125 16.6208V9.37919C5.43125 8.86497 5.84376 8.44772 6.35213 8.44772H16.5796ZM6.35213 9.27614C6.29564 9.27614 6.25025 9.32205 6.25025 9.37919V16.6208C6.25025 16.6779 6.29564 16.7239 6.35213 16.7239H16.5796C16.6361 16.7239 16.6815 16.6779 16.6815 16.6208V9.37919C16.6815 9.32205 16.6361 9.27614 16.5796 9.27614H6.35213Z" fill="white" fill-opacity="0.5"/>
<path d="M19.1365 15.069C19.7013 15.069 20.1593 15.5322 20.1593 16.1036C20.1593 16.6749 19.7013 17.1381 19.1365 17.1381C18.5717 17.1381 18.1138 16.6749 18.1138 16.1036C18.1138 15.5322 18.5717 15.069 19.1365 15.069Z" fill="white" fill-opacity="0.5"/>
<path d="M19.6479 11.9655C19.9303 11.9655 20.1593 12.1971 20.1593 12.4827C20.1593 12.7684 19.9303 13 19.6479 13H18.6251C18.3427 13 18.1138 12.7684 18.1138 12.4827C18.1138 12.1971 18.3427 11.9655 18.6251 11.9655H19.6479Z" fill="white" fill-opacity="0.5"/>
<path d="M19.6479 9.89645C19.9303 9.89645 20.1593 10.128 20.1593 10.4137C20.1593 10.6994 19.9303 10.931 19.6479 10.931H18.6251C18.3427 10.931 18.1138 10.6994 18.1138 10.4137C18.1138 10.128 18.3427 9.89645 18.6251 9.89645H19.6479Z" fill="white" fill-opacity="0.5"/>
<path fill-rule="evenodd" clip-rule="evenodd" d="M20.1593 7C21.176 7 22 7.8335 22 8.86193V17.1381C22 18.1665 21.176 19 20.1593 19H5.84075C4.82402 19 4 18.1665 4 17.1381V8.86193C4 7.8335 4.82402 7 5.84075 7H20.1593ZM5.73588 7.83246C5.22028 7.88557 4.818 8.32638 4.818 8.86193V17.1381L4.82299 17.2441C4.87198 17.7308 5.25475 18.118 5.73588 18.1675L5.84075 18.1726H20.1593C20.6887 18.1726 21.1245 17.7657 21.177 17.2441L21.182 17.1381V8.86193C21.182 8.29058 20.7241 7.82741 20.1593 7.82741H5.84075L5.73588 7.83246Z" fill="white" fill-opacity="0.5"/>
</svg>
