<svg width="45" height="45" viewBox="0 0 45 45" fill="none" xmlns="http://www.w3.org/2000/svg">
<path d="M23.9185 27.2799C24.0692 27.1389 24.1538 26.9477 24.1538 26.7484C24.1538 26.549 24.0692 26.3578 23.9185 26.2168L19.94 22.4955L23.9185 18.7741C24.0649 18.6323 24.1459 18.4424 24.1441 18.2453C24.1423 18.0481 24.0578 17.8596 23.9087 17.7202C23.7597 17.5808 23.5581 17.5017 23.3474 17.5C23.1367 17.4983 22.9336 17.5741 22.782 17.711L18.2353 21.9639C18.0846 22.1049 18 22.2961 18 22.4955C18 22.6948 18.0846 22.886 18.2353 23.027L22.782 27.2799C22.9328 27.4208 23.1372 27.5 23.3503 27.5C23.5634 27.5 23.7678 27.4208 23.9185 27.2799Z" fill="white" fill-opacity="0.5"/>
</svg>
