<svg width="40" height="40" viewBox="0 0 40 40" fill="none" xmlns="http://www.w3.org/2000/svg">
<path d="M12.4403 26.1349H22.0457C21.979 27.4226 21.1491 28.2431 20.0047 28.2431C18.8505 28.2431 18.03 27.4226 17.9534 26.1349H16.4655C16.542 27.9663 17.9823 29.578 20.0047 29.578C22.0173 29.578 23.4576 27.9663 23.5341 26.1349H27.5593C28.4656 26.1349 29 25.6676 29 24.9806C29 24.0267 28.0362 23.1683 27.2064 22.3193C26.5768 21.6612 26.405 20.3068 26.3383 19.2099C26.2622 15.4514 25.2988 13.0188 22.7519 12.103C22.4369 10.8633 21.4068 9.87109 20.0047 9.87109C18.5924 9.87109 17.5721 10.8633 17.2477 12.103C14.7105 13.0188 13.7374 15.4514 13.6707 19.2095C13.5946 20.3068 13.4322 21.6612 12.7932 22.3193C11.9727 23.1683 11 24.0267 11 24.981C11 25.6676 11.5437 26.1349 12.4403 26.1349ZM12.8599 24.6941V24.5802C13.0317 24.294 13.5946 23.7405 14.1001 23.1777C14.7773 22.4146 15.1013 21.1936 15.1875 19.3243C15.2636 15.1648 16.5037 13.8299 18.1443 13.3912C18.3828 13.3338 18.507 13.2096 18.5163 12.9711C18.5546 11.9699 19.1174 11.2732 20.0047 11.2732C20.8822 11.2732 21.4544 11.9695 21.4833 12.9711C21.4926 13.2096 21.6261 13.3334 21.8646 13.3908C23.4959 13.8299 24.736 15.1652 24.8218 19.3243C24.8979 21.1936 25.2223 22.4146 25.9093 23.1777C26.405 23.7405 26.9773 24.294 27.149 24.5802V24.6941H12.8599Z" fill="white" fill-opacity="0.5"/>
</svg>
