<svg width="40" height="40" viewBox="0 0 40 40" fill="none" xmlns="http://www.w3.org/2000/svg">
<g filter="url(#filter0_d_19517_35974)">
<path d="M16.4655 26.1349H12.4403C11.5437 26.1349 11 25.6676 11 24.981C11 24.0267 11.9727 23.1683 12.7932 22.3193C13.4322 21.6612 13.5946 20.3068 13.6707 19.2095C13.7374 15.4514 14.7105 13.0188 17.2477 12.103C17.5721 10.8633 18.5924 9.87109 20.0047 9.87109C21.4068 9.87109 22.4369 10.8633 22.7519 12.103C25.2988 13.0188 26.2622 15.4514 26.3383 19.2099C26.405 20.3068 26.5768 21.6612 27.2064 22.3193C28.0362 23.1683 29 24.0267 29 24.9806C29 25.6676 28.4656 26.1349 27.5593 26.1349H23.5341C23.4576 27.9663 22.0173 29.578 20.0047 29.578C17.9823 29.578 16.542 27.9663 16.4655 26.1349Z" fill="url(#paint0_linear_19517_35974)"/>
</g>
<defs>
<filter id="filter0_d_19517_35974" x="6" y="4.87109" width="28" height="29.707" filterUnits="userSpaceOnUse" color-interpolation-filters="sRGB">
<feFlood flood-opacity="0" result="BackgroundImageFix"/>
<feColorMatrix in="SourceAlpha" type="matrix" values="0 0 0 0 0 0 0 0 0 0 0 0 0 0 0 0 0 0 127 0" result="hardAlpha"/>
<feOffset/>
<feGaussianBlur stdDeviation="2.5"/>
<feComposite in2="hardAlpha" operator="out"/>
<feColorMatrix type="matrix" values="0 0 0 0 0.968627 0 0 0 0 0.0588235 0 0 0 0 0.545098 0 0 0 0.5 0"/>
<feBlend mode="normal" in2="BackgroundImageFix" result="effect1_dropShadow_19517_35974"/>
<feBlend mode="normal" in="SourceGraphic" in2="effect1_dropShadow_19517_35974" result="shape"/>
</filter>
<linearGradient id="paint0_linear_19517_35974" x1="20" y1="9.87109" x2="20" y2="29.578" gradientUnits="userSpaceOnUse">
<stop stop-color="#F70F8B"/>
<stop offset="1" stop-color="#FC08B7"/>
</linearGradient>
</defs>
</svg>
