<svg width="40" height="40" viewBox="0 0 40 40" fill="none" xmlns="http://www.w3.org/2000/svg">
<g filter="url(#filter0_d_19517_35950)">
<path d="M20 20C18.7625 20 17.7031 19.5594 16.8219 18.6781C15.9406 17.7969 15.5 16.7375 15.5 15.5C15.5 14.2625 15.9406 13.2031 16.8219 12.3219C17.7031 11.4406 18.7625 11 20 11C21.2375 11 22.2969 11.4406 23.1781 12.3219C24.0594 13.2031 24.5 14.2625 24.5 15.5C24.5 16.7375 24.0594 17.7969 23.1781 18.6781C22.2969 19.5594 21.2375 20 20 20ZM11 26.75V25.85C11 25.2125 11.1643 24.6267 11.4928 24.0927C11.8213 23.5587 12.257 23.1507 12.8 22.8687C13.9625 22.2875 15.1437 21.8517 16.3437 21.5615C17.5437 21.2712 18.7625 21.1257 20 21.125C21.2375 21.1242 22.4562 21.2697 23.6562 21.5615C24.8562 21.8532 26.0375 22.289 27.2 22.8687C27.7437 23.15 28.1799 23.558 28.5084 24.0927C28.8369 24.6275 29.0007 25.2132 29 25.85V26.75C29 27.3687 28.7799 27.8986 28.3396 28.3396C27.8994 28.7806 27.3695 29.0007 26.75 29H13.25C12.6312 29 12.1017 28.7799 11.6615 28.3396C11.2212 27.8994 11.0007 27.3695 11 26.75Z" fill="url(#paint0_linear_19517_35950)"/>
<path d="M20 21.875C21.1778 21.8743 22.3378 22.0125 23.4795 22.29C24.6185 22.567 25.7431 22.9818 26.8545 23.5352H26.8555C27.2747 23.7521 27.6102 24.0639 27.8691 24.4854C28.1237 24.8998 28.2505 25.3488 28.25 25.8486V26.75C28.25 27.1685 28.1096 27.5081 27.8086 27.8096C27.5083 28.1103 27.1697 28.2505 26.751 28.25H13.25C12.8316 28.25 12.492 28.1102 12.1914 27.8096C11.9285 27.5467 11.7883 27.2534 11.7568 26.9033L11.75 26.749V25.8496C11.7501 25.3486 11.8774 24.899 12.1318 24.4854C12.3888 24.0678 12.7205 23.7565 13.1348 23.5391L13.1357 23.54C14.2502 22.9828 15.3784 22.5663 16.5205 22.29C17.6625 22.0139 18.8219 21.8757 20 21.875ZM20 11.75C21.037 11.75 21.9057 12.1108 22.6475 12.8525C23.3892 13.5943 23.75 14.463 23.75 15.5C23.75 16.537 23.3892 17.4057 22.6475 18.1475C21.9057 18.8892 21.037 19.25 20 19.25C18.963 19.25 18.0943 18.8892 17.3525 18.1475C16.6108 17.4057 16.25 16.537 16.25 15.5C16.25 14.463 16.6108 13.5943 17.3525 12.8525C18.0943 12.1108 18.963 11.75 20 11.75Z" stroke="url(#paint1_linear_19517_35950)" stroke-width="1.5"/>
</g>
<defs>
<filter id="filter0_d_19517_35950" x="6" y="6" width="28" height="28" filterUnits="userSpaceOnUse" color-interpolation-filters="sRGB">
<feFlood flood-opacity="0" result="BackgroundImageFix"/>
<feColorMatrix in="SourceAlpha" type="matrix" values="0 0 0 0 0 0 0 0 0 0 0 0 0 0 0 0 0 0 127 0" result="hardAlpha"/>
<feOffset/>
<feGaussianBlur stdDeviation="2.5"/>
<feComposite in2="hardAlpha" operator="out"/>
<feColorMatrix type="matrix" values="0 0 0 0 0.968627 0 0 0 0 0.0588235 0 0 0 0 0.545098 0 0 0 0.5 0"/>
<feBlend mode="normal" in2="BackgroundImageFix" result="effect1_dropShadow_19517_35950"/>
<feBlend mode="normal" in="SourceGraphic" in2="effect1_dropShadow_19517_35950" result="shape"/>
</filter>
<linearGradient id="paint0_linear_19517_35950" x1="20" y1="11" x2="20" y2="29" gradientUnits="userSpaceOnUse">
<stop stop-color="#F70F8B"/>
<stop offset="1" stop-color="#FC08B7"/>
</linearGradient>
<linearGradient id="paint1_linear_19517_35950" x1="20" y1="11" x2="20" y2="29" gradientUnits="userSpaceOnUse">
<stop stop-color="#F70F8B"/>
<stop offset="1" stop-color="#FC08B7"/>
</linearGradient>
</defs>
</svg>
