<svg width="40" height="40" viewBox="0 0 40 40" fill="none" xmlns="http://www.w3.org/2000/svg">
<path d="M20 21.875C21.1778 21.8743 22.3378 22.0125 23.4795 22.29C24.6185 22.567 25.7431 22.9818 26.8545 23.5352H26.8555C27.2747 23.7521 27.6102 24.0639 27.8691 24.4854C28.1237 24.8998 28.2505 25.3488 28.25 25.8486V26.75C28.25 27.1685 28.1096 27.5081 27.8086 27.8096C27.5084 28.1103 27.1697 28.2505 26.751 28.25H13.25C12.8316 28.25 12.492 28.1102 12.1914 27.8096C11.9285 27.5467 11.7883 27.2535 11.7568 26.9033L11.75 26.749V25.8496C11.7501 25.3486 11.8774 24.899 12.1318 24.4854C12.3888 24.0678 12.7205 23.7565 13.1348 23.5391L13.1357 23.54C14.2502 22.9828 15.3784 22.5663 16.5205 22.29C17.6625 22.0139 18.8219 21.8757 20 21.875ZM20 11.75C21.037 11.75 21.9057 12.1108 22.6475 12.8525C23.3892 13.5943 23.75 14.463 23.75 15.5C23.75 16.537 23.3892 17.4057 22.6475 18.1475C21.9057 18.8892 21.037 19.25 20 19.25C18.963 19.25 18.0943 18.8892 17.3525 18.1475C16.6108 17.4057 16.25 16.537 16.25 15.5C16.25 14.463 16.6108 13.5943 17.3525 12.8525C18.0943 12.1108 18.963 11.75 20 11.75Z" stroke="white" stroke-opacity="0.5" stroke-width="1.5"/>
</svg>
