<svg width="45" height="45" viewBox="0 0 45 45" fill="none" xmlns="http://www.w3.org/2000/svg">
<path d="M17.3272 23.5117V20.8935H18.3601C18.5578 20.8935 18.7266 20.9289 18.8664 20.9996C19.007 21.0695 19.114 21.1688 19.1873 21.2975C19.2614 21.4254 19.2985 21.5758 19.2985 21.7488C19.2985 21.9227 19.261 22.0722 19.186 22.1975C19.111 22.3219 19.0023 22.4174 18.86 22.4839C18.7185 22.5504 18.5472 22.5836 18.3461 22.5836H17.6544V22.1387H18.2566C18.3623 22.1387 18.45 22.1242 18.5199 22.0952C18.5898 22.0663 18.6418 22.0228 18.6759 21.9648C18.7108 21.9069 18.7283 21.8349 18.7283 21.7488C18.7283 21.6619 18.7108 21.5886 18.6759 21.5289C18.6418 21.4692 18.5894 21.4241 18.5186 21.3934C18.4488 21.3619 18.3605 21.3461 18.254 21.3461H17.8807V23.5117H17.3272ZM18.7411 22.3202L19.3918 23.5117H18.7807L18.1441 22.3202H18.7411ZM20.5427 23.5501C20.3407 23.5501 20.1668 23.5092 20.0211 23.4273C19.8762 23.3447 19.7646 23.2279 19.6862 23.0771C19.6077 22.9254 19.5685 22.746 19.5685 22.5388C19.5685 22.3369 19.6077 22.1596 19.6862 22.007C19.7646 21.8545 19.8749 21.7356 20.0173 21.6504C20.1604 21.5651 20.3283 21.5225 20.521 21.5225C20.6505 21.5225 20.7711 21.5434 20.8827 21.5852C20.9952 21.6261 21.0933 21.6879 21.1768 21.7705C21.2612 21.8532 21.3268 21.9572 21.3737 22.0825C21.4205 22.2069 21.444 22.3526 21.444 22.5197V22.6692H19.7859V22.3317H20.9313C20.9313 22.2533 20.9143 22.1839 20.8802 22.1234C20.8461 22.0629 20.7988 22.0156 20.7383 21.9815C20.6786 21.9465 20.6092 21.929 20.5299 21.929C20.4472 21.929 20.3739 21.9482 20.31 21.9866C20.2469 22.0241 20.1975 22.0748 20.1617 22.1387C20.1259 22.2018 20.1076 22.2721 20.1067 22.3496V22.6705C20.1067 22.7677 20.1246 22.8516 20.1604 22.9224C20.1971 22.9931 20.2487 23.0477 20.3151 23.086C20.3816 23.1244 20.4604 23.1435 20.5516 23.1435C20.6121 23.1435 20.6675 23.135 20.7178 23.118C20.7681 23.1009 20.8112 23.0754 20.8469 23.0413C20.8827 23.0072 20.91 22.9654 20.9288 22.916L21.4325 22.9492C21.4069 23.0702 21.3545 23.1759 21.2752 23.2663C21.1968 23.3558 21.0954 23.4256 20.971 23.4759C20.8474 23.5254 20.7046 23.5501 20.5427 23.5501ZM23.4332 22.108L22.9346 22.1387C22.9261 22.0961 22.9077 22.0577 22.8796 22.0237C22.8515 21.9887 22.8144 21.961 22.7684 21.9406C22.7232 21.9192 22.6691 21.9086 22.606 21.9086C22.5217 21.9086 22.4505 21.9265 22.3925 21.9623C22.3346 21.9972 22.3056 22.0441 22.3056 22.1029C22.3056 22.1498 22.3244 22.1894 22.3619 22.2218C22.3994 22.2542 22.4637 22.2802 22.5549 22.2998L22.9103 22.3714C23.1012 22.4106 23.2435 22.4737 23.3373 22.5606C23.431 22.6475 23.4779 22.7617 23.4779 22.9032C23.4779 23.0319 23.44 23.1448 23.3641 23.242C23.2891 23.3391 23.186 23.415 23.0548 23.4695C22.9244 23.5232 22.7739 23.5501 22.6035 23.5501C22.3435 23.5501 22.1364 23.496 21.9822 23.3877C21.8288 23.2786 21.7388 23.1303 21.7124 22.9428L22.2481 22.9147C22.2643 22.994 22.3035 23.0545 22.3657 23.0962C22.4279 23.1371 22.5076 23.1576 22.6048 23.1576C22.7002 23.1576 22.7769 23.1393 22.8349 23.1026C22.8937 23.0651 22.9235 23.017 22.9244 22.9582C22.9235 22.9087 22.9026 22.8683 22.8617 22.8367C22.8208 22.8043 22.7577 22.7796 22.6725 22.7626L22.3325 22.6948C22.1407 22.6565 21.9979 22.59 21.9042 22.4954C21.8113 22.4008 21.7648 22.2802 21.7648 22.1336C21.7648 22.0075 21.7989 21.8988 21.8671 21.8076C21.9362 21.7164 22.0329 21.6461 22.1573 21.5967C22.2826 21.5472 22.4292 21.5225 22.5971 21.5225C22.8451 21.5225 23.0403 21.5749 23.1826 21.6798C23.3258 21.7846 23.4093 21.9273 23.4332 22.108ZM24.7157 23.5501C24.5137 23.5501 24.3399 23.5092 24.1941 23.4273C24.0493 23.3447 23.9376 23.2279 23.8592 23.0771C23.7808 22.9254 23.7416 22.746 23.7416 22.5388C23.7416 22.3369 23.7808 22.1596 23.8592 22.007C23.9376 21.8545 24.048 21.7356 24.1903 21.6504C24.3335 21.5651 24.5014 21.5225 24.694 21.5225C24.8235 21.5225 24.9441 21.5434 25.0558 21.5852C25.1683 21.6261 25.2663 21.6879 25.3498 21.7705C25.4342 21.8532 25.4998 21.9572 25.5467 22.0825C25.5936 22.2069 25.617 22.3526 25.617 22.5197V22.6692H23.9589V22.3317H25.1044C25.1044 22.2533 25.0873 22.1839 25.0532 22.1234C25.0191 22.0629 24.9718 22.0156 24.9113 21.9815C24.8517 21.9465 24.7822 21.929 24.7029 21.929C24.6203 21.929 24.547 21.9482 24.4831 21.9866C24.42 22.0241 24.3706 22.0748 24.3348 22.1387C24.299 22.2018 24.2806 22.2721 24.2798 22.3496V22.6705C24.2798 22.7677 24.2977 22.8516 24.3335 22.9224C24.3701 22.9931 24.4217 23.0477 24.4882 23.086C24.5547 23.1244 24.6335 23.1435 24.7247 23.1435C24.7852 23.1435 24.8406 23.135 24.8909 23.118C24.9412 23.1009 24.9842 23.0754 25.02 23.0413C25.0558 23.0072 25.0831 22.9654 25.1018 22.916L25.6055 22.9492C25.5799 23.0702 25.5275 23.1759 25.4483 23.2663C25.3698 23.3558 25.2684 23.4256 25.144 23.4759C25.0204 23.5254 24.8777 23.5501 24.7157 23.5501ZM27.0169 21.5481V21.9572H25.8343V21.5481H27.0169ZM26.1028 21.0776H26.6474V22.9083C26.6474 22.9586 26.6551 22.9978 26.6704 23.0259C26.6858 23.0532 26.7071 23.0724 26.7343 23.0835C26.7625 23.0945 26.7949 23.1001 26.8315 23.1001C26.8571 23.1001 26.8826 23.0979 26.9082 23.0937C26.9338 23.0886 26.9534 23.0847 26.967 23.0822L27.0527 23.4874C27.0254 23.496 26.987 23.5058 26.9376 23.5168C26.8882 23.5288 26.8281 23.536 26.7574 23.5386C26.6261 23.5437 26.511 23.5262 26.4122 23.4862C26.3142 23.4461 26.2379 23.3839 26.1833 23.2995C26.1288 23.2151 26.102 23.1086 26.1028 22.9799V21.0776Z" fill="black"/>
<path d="M24.6664 13L25.1699 13.9414C25.5101 14.5772 25.6802 14.8955 25.5674 15.0319C25.4554 15.1683 25.0849 15.058 24.343 14.8382C23.5823 14.613 22.793 14.4987 21.9996 14.4989C17.5813 14.4989 14 17.9749 14 22.2627C13.9987 23.6296 14.3683 24.9712 15.0694 26.1446M19.3336 31.5253L18.8301 30.5839C18.4899 29.9473 18.3198 29.629 18.4326 29.4934C18.5446 29.357 18.9151 29.4665 19.657 29.6871C20.398 29.9069 21.1853 30.0256 22.0004 30.0256C26.4187 30.0256 30 26.5496 30 22.2618C30.0012 20.8952 29.6316 19.5539 28.9306 18.3808" stroke="black" stroke-width="1.4315" stroke-linecap="round" stroke-linejoin="round"/>
</svg>
