<svg width="26" height="26" viewBox="0 0 26 26" fill="none" xmlns="http://www.w3.org/2000/svg">
<path d="M10.4739 13.2331C8.5632 13.0521 6.2067 13.1166 4.91076 13.8849L4.77416 13.9663C4.34956 14.2174 4.03573 14.6323 4.00804 15.1345C3.96835 15.8876 4.05419 17.0984 4.75846 18.3508C6.00825 20.5724 8.17738 21.5936 9.09579 21.9423C9.36901 22.0465 9.66807 22.0048 9.92006 21.8561C10.3843 21.5813 10.5819 21.0015 10.4591 20.4653C10.1176 18.9685 10.0401 16.8179 11.1348 15.1458C10.8933 14.8971 10.7087 14.5963 10.5944 14.2654C10.4801 13.9344 10.4389 13.5814 10.4739 13.2321M14.9949 14.1028C14.9092 14.4228 14.7589 14.7207 14.5537 14.9773C14.3486 15.2338 14.0932 15.4433 13.8042 15.592C14.6054 17.3958 15.8524 19.498 17.164 20.2749L17.3006 20.3564C17.7252 20.6074 18.2329 20.6785 18.6695 20.4511C19.6473 19.9418 20.4599 19.1519 21.0085 18.1774C22.2582 15.9558 22.0358 13.5163 21.8706 12.5263C21.8442 12.3819 21.7871 12.2451 21.7031 12.1261C21.6192 12.007 21.5105 11.9085 21.3851 11.8376C20.9208 11.5619 20.3337 11.6765 19.9424 12.0527C18.8273 13.127 17.0006 14.296 14.9949 14.1028ZM12.236 11.1697C12.5812 11.0856 12.9407 11.0843 13.2864 11.166C13.6322 11.2476 13.955 11.41 14.2297 11.6405C15.3373 10.0319 16.4616 7.90506 16.4616 6.36843V6.20737C16.4616 5.70527 16.2678 5.21832 15.8579 4.94358C14.9393 4.32846 13.8663 4.00064 12.7695 4C10.2699 4 8.32322 5.41821 7.57002 6.05958C7.46108 6.15529 7.37419 6.27461 7.31561 6.40894C7.25703 6.54328 7.22822 6.68929 7.23127 6.83643C7.23127 7.3859 7.62079 7.85012 8.13492 8.01022C9.54254 8.44601 11.3526 9.4237 12.236 11.1697ZM15.077 13.4737C15.077 14.1019 14.8339 14.7043 14.4012 15.1484C13.9684 15.5926 13.3815 15.8421 12.7695 15.8421C12.1575 15.8421 11.5705 15.5926 11.1378 15.1484C10.705 14.7043 10.4619 14.1019 10.4619 13.4737C10.4619 12.8456 10.705 12.2431 11.1378 11.799C11.5705 11.3548 12.1575 11.1053 12.7695 11.1053C13.3815 11.1053 13.9684 11.3548 14.4012 11.799C14.8339 12.2431 15.077 12.8456 15.077 13.4737Z" stroke="white" stroke-opacity="0.5" stroke-linecap="round" stroke-linejoin="round"/>
</svg>
