<svg width="40" height="40" viewBox="0 0 40 40" fill="none" xmlns="http://www.w3.org/2000/svg">
<g filter="url(#filter0_d_19517_35978)">
<path d="M26.9421 20C26.9421 19.7815 26.9328 19.5725 26.9143 19.354L28.636 18.0145C29.0062 17.7295 29.108 17.1975 28.8766 16.7795L27.1457 13.711C27.0347 13.5098 26.8552 13.3577 26.6417 13.2841C26.4281 13.2104 26.1956 13.2204 25.9887 13.312L23.9986 14.1765C23.6562 13.9295 23.2952 13.711 22.9157 13.5305L22.6472 11.336C22.5917 10.861 22.1937 10.5 21.7309 10.5H18.2784C17.8063 10.5 17.4083 10.861 17.3528 11.336L17.0843 13.5305C16.7048 13.711 16.3438 13.9295 16.0014 14.1765L14.0113 13.312C13.5855 13.122 13.0857 13.293 12.8543 13.711L11.1234 16.789C10.892 17.207 10.9938 17.7295 11.364 18.024L13.0857 19.3635C13.0473 19.7901 13.0473 20.2194 13.0857 20.646L11.364 21.9855C10.9938 22.2705 10.892 22.8025 11.1234 23.2205L12.8543 26.289C13.0857 26.707 13.5855 26.878 14.0113 26.688L16.0014 25.8235C16.3438 26.0705 16.7048 26.289 17.0843 26.4695L17.3528 28.664C17.4083 29.139 17.8063 29.5 18.2691 29.5H21.7216C22.1844 29.5 22.5825 29.139 22.638 28.664L22.9064 26.4695C23.2859 26.289 23.6469 26.0705 23.9894 25.8235L25.9795 26.688C26.4052 26.878 26.9051 26.707 27.1365 26.289L28.8674 23.2205C29.0988 22.8025 28.9969 22.28 28.6267 21.9855L26.9051 20.646C26.9328 20.4275 26.9421 20.2185 26.9421 20ZM20.037 23.325C18.2506 23.325 16.7974 21.8335 16.7974 20C16.7974 18.1665 18.2506 16.675 20.037 16.675C21.8235 16.675 23.2767 18.1665 23.2767 20C23.2767 21.8335 21.8235 23.325 20.037 23.325Z" fill="url(#paint0_linear_19517_35978)"/>
<path d="M26.9421 20C26.9421 19.7815 26.9328 19.5725 26.9143 19.354L28.636 18.0145C29.0062 17.7295 29.108 17.1975 28.8766 16.7795L27.1457 13.711C27.0347 13.5098 26.8552 13.3577 26.6417 13.2841C26.4281 13.2104 26.1956 13.2204 25.9887 13.312L23.9986 14.1765C23.6562 13.9295 23.2952 13.711 22.9157 13.5305L22.6472 11.336C22.5917 10.861 22.1937 10.5 21.7309 10.5H18.2784C17.8063 10.5 17.4083 10.861 17.3528 11.336L17.0843 13.5305C16.7048 13.711 16.3438 13.9295 16.0014 14.1765L14.0113 13.312C13.5855 13.122 13.0857 13.293 12.8543 13.711L11.1234 16.789C10.892 17.207 10.9938 17.7295 11.364 18.024L13.0857 19.3635C13.0473 19.7901 13.0473 20.2194 13.0857 20.646L11.364 21.9855C10.9938 22.2705 10.892 22.8025 11.1234 23.2205L12.8543 26.289C13.0857 26.707 13.5855 26.878 14.0113 26.688L16.0014 25.8235C16.3438 26.0705 16.7048 26.289 17.0843 26.4695L17.3528 28.664C17.4083 29.139 17.8063 29.5 18.2691 29.5H21.7216C22.1844 29.5 22.5825 29.139 22.638 28.664L22.9064 26.4695C23.2859 26.289 23.6469 26.0705 23.9894 25.8235L25.9795 26.688C26.4052 26.878 26.9051 26.707 27.1365 26.289L28.8674 23.2205C29.0988 22.8025 28.9969 22.28 28.6267 21.9855L26.9051 20.646C26.9328 20.4275 26.9421 20.2185 26.9421 20ZM20.037 23.325C18.2506 23.325 16.7974 21.8335 16.7974 20C16.7974 18.1665 18.2506 16.675 20.037 16.675C21.8235 16.675 23.2767 18.1665 23.2767 20C23.2767 21.8335 21.8235 23.325 20.037 23.325Z" stroke="url(#paint1_linear_19517_35978)" stroke-width="1.5"/>
</g>
<defs>
<filter id="filter0_d_19517_35978" x="5.25" y="4.75" width="29.5" height="30.5" filterUnits="userSpaceOnUse" color-interpolation-filters="sRGB">
<feFlood flood-opacity="0" result="BackgroundImageFix"/>
<feColorMatrix in="SourceAlpha" type="matrix" values="0 0 0 0 0 0 0 0 0 0 0 0 0 0 0 0 0 0 127 0" result="hardAlpha"/>
<feOffset/>
<feGaussianBlur stdDeviation="2.5"/>
<feComposite in2="hardAlpha" operator="out"/>
<feColorMatrix type="matrix" values="0 0 0 0 0.968627 0 0 0 0 0.0588235 0 0 0 0 0.545098 0 0 0 0.5 0"/>
<feBlend mode="normal" in2="BackgroundImageFix" result="effect1_dropShadow_19517_35978"/>
<feBlend mode="normal" in="SourceGraphic" in2="effect1_dropShadow_19517_35978" result="shape"/>
</filter>
<linearGradient id="paint0_linear_19517_35978" x1="20" y1="10.5" x2="20" y2="29.5" gradientUnits="userSpaceOnUse">
<stop stop-color="#F70F8B"/>
<stop offset="1" stop-color="#FC08B7"/>
</linearGradient>
<linearGradient id="paint1_linear_19517_35978" x1="20" y1="10.5" x2="20" y2="29.5" gradientUnits="userSpaceOnUse">
<stop stop-color="#F70F8B"/>
<stop offset="1" stop-color="#FC08B7"/>
</linearGradient>
</defs>
</svg>
