<svg width="22" height="22" viewBox="0 0 22 22" fill="none" xmlns="http://www.w3.org/2000/svg">
<path d="M5.83599 15.8948C7.25656 17.0388 8.86833 17.5138 10.6713 17.3198C12.4743 17.1257 13.9477 16.318 15.0917 14.8967C16.2356 13.4754 16.7106 11.8636 16.5167 10.0614C16.3227 8.25918 15.515 6.78573 14.0936 5.64102L13.7571 5.37006C13.6503 5.28405 13.5403 5.21301 13.4269 5.15696C13.468 6.3522 13.3063 7.52074 12.9418 8.66258C12.5772 9.80442 12.0121 10.8503 11.2465 11.8001C10.4809 12.7499 9.57917 13.525 8.54138 14.1254C7.50359 14.7258 6.39677 15.1328 5.22093 15.3466C5.29986 15.4454 5.39273 15.5378 5.49954 15.6238L5.83599 15.8948ZM4.80379 17.1765C4.42995 16.8754 4.08622 16.537 3.7726 16.1612C3.45897 15.7853 3.19148 15.385 2.97011 14.9603C2.89563 14.8122 2.86401 14.6547 2.87526 14.4877C2.88651 14.3207 2.94375 14.1731 3.04697 14.0449C3.12438 13.9488 3.21886 13.8752 3.33039 13.8241C3.44193 13.7731 3.56623 13.7499 3.70329 13.7547C4.92405 13.7693 6.08144 13.5129 7.17545 12.9852C8.26946 12.4576 9.19924 11.7185 9.96479 10.7679C10.7303 9.81729 11.2496 8.75181 11.5226 7.57147C11.7956 6.39112 11.7987 5.20086 11.532 4.00069C11.5088 3.8764 11.5103 3.75432 11.5364 3.63446C11.5625 3.51461 11.6142 3.40662 11.6916 3.31049C11.7949 3.18232 11.9243 3.09287 12.08 3.04214C12.2356 2.99141 12.3935 2.98648 12.5536 3.02735C13.0264 3.16167 13.4799 3.34198 13.914 3.56827C14.348 3.79456 14.752 4.05824 15.1258 4.3593C16.0123 5.07324 16.7099 5.9125 17.2185 6.87708C17.727 7.84167 18.0377 8.84438 18.1503 9.88522C18.2629 10.9261 18.1734 11.9721 17.8818 13.0234C17.5902 14.0746 17.0874 15.0431 16.3734 15.9289C15.6594 16.8147 14.8201 17.5122 13.8556 18.0216C12.8911 18.5309 11.8884 18.8415 10.8475 18.9534C9.80655 19.0653 8.76049 18.9758 7.70931 18.6849C6.65813 18.3941 5.68962 17.8913 4.80379 17.1765Z" fill="#CACACA"/>
</svg>
