<svg width="22" height="22" viewBox="0 0 22 22" fill="none" xmlns="http://www.w3.org/2000/svg">
<path d="M10.9978 9.13676L11.0003 5.74369C12.2816 5.74369 13.2318 6.56914 13.3614 7.91771L12.1367 9.55314C12.3106 9.69901 12.455 9.87673 12.5623 10.0768L15.617 8.31127C16.2601 9.41989 16.0057 10.6533 14.9019 11.4403L12.75 11.1862C12.7135 11.4214 12.6299 11.6468 12.5041 11.8489L15.617 13.648C14.9739 14.7565 13.7837 15.1598 12.5503 14.5934L11.6751 12.553C11.4611 12.6417 11.2318 12.6876 11.0002 12.6881V16.3068C9.71881 16.3068 8.77822 15.4765 8.6486 14.1232L9.96789 12.3596C9.77669 12.2237 9.6141 12.0516 9.48937 11.8529L6.38339 13.648C5.7403 12.5394 5.99463 11.306 7.09844 10.5189L9.22587 10.7702C9.24522 10.526 9.31516 10.2886 9.43123 10.0729L6.38339 8.31131C7.03123 7.2027 8.22153 6.79952 9.4501 7.36587L10.2751 9.28928C10.5027 9.18847 10.7489 9.13648 10.9978 9.13676ZM19 11.0001C19 17.1356 12.3123 20.9912 6.99098 17.9234C1.6697 14.8556 1.66965 7.14452 6.99098 4.07668C12.3123 1.00884 19 4.86447 19 11.0001ZM17.1483 11.0001C17.1483 6.28457 12.0085 3.32141 7.91886 5.67918C3.82916 8.0369 3.82916 13.9632 7.91886 16.3209C12.0086 18.6787 17.1483 15.7155 17.1483 11.0001Z" fill="#CACACA"/>
</svg>
