<svg width="26" height="26" viewBox="0 0 26 26" fill="none" xmlns="http://www.w3.org/2000/svg">
<path fill-rule="evenodd" clip-rule="evenodd" d="M20.4118 6C21.2889 6 22 6.71108 22 7.58824V16.0588C22 16.936 21.2889 17.6471 20.4118 17.6471H13.5294V19.2353H15.6471C15.9394 19.2353 16.1765 19.4723 16.1765 19.7647C16.1765 20.0571 15.9394 20.2941 15.6471 20.2941H10.3529C10.0606 20.2941 9.82353 20.0571 9.82353 19.7647C9.82353 19.4723 10.0606 19.2353 10.3529 19.2353H12.4706V17.6471H5.58824C4.71108 17.6471 4 16.936 4 16.0588V7.58824C4 6.71108 4.71108 6 5.58824 6H20.4118ZM5.58824 7.05882C5.29585 7.05882 5.05882 7.29585 5.05882 7.58824V16.0588C5.05882 16.3512 5.29585 16.5882 5.58824 16.5882H20.4118C20.7042 16.5882 20.9412 16.3512 20.9412 16.0588V7.58824C20.9412 7.29585 20.7042 7.05882 20.4118 7.05882H5.58824Z" fill="white" fill-opacity="0.5"/>
</svg>
