<svg width="45" height="45" viewBox="0 0 45 45" fill="none" xmlns="http://www.w3.org/2000/svg">
<path d="M17.7201 23.9185C17.8611 24.0692 18.0523 24.1538 18.2516 24.1538C18.451 24.1538 18.6422 24.0692 18.7832 23.9185L22.5045 19.94L26.2259 23.9185C26.3677 24.0649 26.5576 24.1459 26.7547 24.1441C26.9519 24.1423 27.1404 24.0578 27.2798 23.9087C27.4192 23.7597 27.4983 23.5581 27.5 23.3474C27.5017 23.1367 27.4259 22.9336 27.289 22.782L23.0361 18.2353C22.8951 18.0846 22.7039 18 22.5045 18C22.3052 18 22.114 18.0846 21.973 18.2353L17.7201 22.782C17.5792 22.9328 17.5 23.1372 17.5 23.3503C17.5 23.5634 17.5792 23.7678 17.7201 23.9185Z" fill="white" fill-opacity="0.5"/>
</svg>
